<?xml version="1.0" encoding="utf-8"?>
<!-- Generator: Adobe Illustrator 19.0.0, SVG Export Plug-In . SVG Version: 6.00 Build 0)  -->
<svg version="1.1" id="Laag_1" xmlns="http://www.w3.org/2000/svg" xmlns:xlink="http://www.w3.org/1999/xlink" x="0px" y="0px"
	 viewBox="52 -119 253 389" style="enable-background:new 52 -119 253 389;" xml:space="preserve">
<style type="text/css">
	.st0{fill:none;stroke:#F9F9F9;stroke-width:13;stroke-miterlimit:10;}
</style>
<title>icoon</title>
<g id="XMLID_1_">
	<line id="XMLID_2_" class="st0" x1="127.7" y1="-88" x2="58.7" y2="253"/>
	<line id="XMLID_3_" class="st0" x1="58.7" y1="253" x2="143.5" y2="253"/>
	<line id="XMLID_6_" class="st0" x1="64.3" y1="253" x2="137.9" y2="253"/>
	<line id="XMLID_4_" class="st0" x1="213.6" y1="253" x2="298.4" y2="253"/>
	<line id="XMLID_5_" class="st0" x1="229.3" y1="-88" x2="298.4" y2="253"/>
	<line id="XMLID_7_" class="st0" x1="127.7" y1="-88" x2="229.3" y2="-88"/>
	<line id="XMLID_8_" class="st0" x1="143.5" y1="253" x2="164.8" y2="149.1"/>
	<line id="XMLID_9_" class="st0" x1="213.6" y1="253" x2="192.2" y2="149.1"/>
	<line id="XMLID_10_" class="st0" x1="164.8" y1="149.1" x2="192.2" y2="149.1"/>
	<line id="XMLID_11_" class="st0" x1="92.3" y1="86.9" x2="151.6" y2="-25.7"/>
	<line id="XMLID_12_" class="st0" x1="199.9" y1="186.3" x2="260.4" y2="65.7"/>
	<line id="XMLID_13_" class="st0" x1="151.6" y1="-25.7" x2="223.8" y2="138.6"/>
	<line id="XMLID_14_" class="st0" x1="187.7" y1="56.5" x2="236.7" y2="-51.8"/>
	<line id="XMLID_15_" class="st0" x1="163.9" y1="2.3" x2="172.9" y2="-15.3"/>
	<line id="XMLID_16_" class="st0" x1="172.9" y1="-15.3" x2="196.4" y2="37.2"/>
</g>
</svg>
