<?xml version="1.0" encoding="utf-8"?>
<!-- Generator: Adobe Illustrator 19.0.0, SVG Export Plug-In . SVG Version: 6.00 Build 0)  -->
<svg version="1.1" id="Laag_1" xmlns="http://www.w3.org/2000/svg" xmlns:xlink="http://www.w3.org/1999/xlink" x="0px" y="0px"
	 viewBox="-679 568 253 389" style="enable-background:new -679 568 253 389;" xml:space="preserve">
<style type="text/css">
	.st0{fill:none;stroke:#191919;stroke-width:4;stroke-miterlimit:10;}
</style>
<title>icoon</title>
<g id="XMLID_16_">
	<line id="XMLID_1_" class="st0" x1="-605" y1="593" x2="-676.3" y2="931"/>
	<line id="XMLID_2_" class="st0" x1="-676.3" y1="931" x2="-588.7" y2="931"/>
	<line id="XMLID_6_" class="st0" x1="-670.5" y1="931" x2="-594.5" y2="931"/>
	<line id="XMLID_4_" class="st0" x1="-516.3" y1="931" x2="-428.7" y2="931"/>
	<line id="XMLID_3_" class="st0" x1="-500" y1="593" x2="-428.7" y2="931"/>
	<line id="XMLID_5_" class="st0" x1="-605" y1="593" x2="-500" y2="593"/>
	<line id="XMLID_7_" class="st0" x1="-588.7" y1="931" x2="-566.7" y2="828.1"/>
	<line id="XMLID_8_" class="st0" x1="-516.3" y1="931" x2="-538.3" y2="828.1"/>
	<line id="XMLID_9_" class="st0" x1="-566.7" y1="828.1" x2="-538.3" y2="828.1"/>
	<line id="XMLID_10_" class="st0" x1="-641.5" y1="766.4" x2="-580.3" y2="654.8"/>
	<line id="XMLID_11_" class="st0" x1="-530.4" y1="864.9" x2="-467.9" y2="745.3"/>
	<line id="XMLID_12_" class="st0" x1="-580.3" y1="654.8" x2="-505.7" y2="817.6"/>
	<line id="XMLID_13_" class="st0" x1="-543" y1="736.2" x2="-492.5" y2="628.9"/>
	<line id="XMLID_14_" class="st0" x1="-567.6" y1="682.6" x2="-558.3" y2="665.1"/>
	<line id="XMLID_15_" class="st0" x1="-558.3" y1="665.1" x2="-534" y2="717.1"/>
</g>
</svg>
