<?xml version="1.0" encoding="utf-8"?>
<!-- Generator: Adobe Illustrator 19.0.0, SVG Export Plug-In . SVG Version: 6.00 Build 0)  -->
<svg version="1.1" id="Layer_1" xmlns="http://www.w3.org/2000/svg" xmlns:xlink="http://www.w3.org/1999/xlink" x="0px" y="0px"
	 viewBox="-35 327.3 540 138.7" style="enable-background:new -35 327.3 540 138.7;" xml:space="preserve">
<style type="text/css">
	.st0{fill:#E2E2E2;}
</style>
<title>Chris</title>
<g>
	<path class="st0" d="M11.5,457c-0.4,0.2-0.8,0-1.2-0.4c-0.4-0.5-0.9-0.8-1.5-1c-0.1,0-0.2,0.1-0.3,0.4c-0.1,0.3-0.2,0.3-0.3,0
		c0.1-0.5,0.1-1-0.1-1.6c-0.1,0.4-0.2,0.8-0.2,1.2c-0.3,0-0.6-0.3-0.9-0.8c0-0.2,0-0.3,0-0.5c0-0.1,0.2-0.2,0.5-0.1v-1.1
		c0.1,0.1,0.1,0,0.1-0.1c0-0.2,0.1-0.2,0.2-0.1c-0.1-0.1-0.1-0.2,0-0.4c0-0.2,0-0.3-0.1-0.4c-0.1,0.1-0.1,0.2,0,0.3
		c0.1,0.1,0.1,0.3,0,0.5c-0.1-0.2-0.2-0.4-0.4-0.6C7.1,452,7,451.9,6.8,452V450c-0.3-0.5-0.6-0.8-1-1.2c-0.4-0.3-0.4-1-0.1-2
		c0.3-0.1,0.5-0.3,0.8-0.7c0.3-0.4,0.4-0.8,0.3-1.4h0.8c0.7-1.3,1.4-2.5,2.1-3.7c0.7-1.2,1.4-2.4,2.2-3.7c-1.3,0-2.7,0.1-4.1,0.4
		c-1.4,0.3-2.6,0.1-3.5-0.4c-0.2,0.3-0.5,0.4-0.8,0.4c-0.4,0-0.7,0.2-0.9,0.7c-0.1-0.3-0.3-0.4-0.4-0.3c-0.1,0.1-0.3,0-0.4-0.3
		c0.1-0.7,0.4-1.1,0.7-1.2c0.4,0,0.7-0.2,0.9-0.5c-0.1,0-0.2,0-0.3-0.1c-0.1,0-0.3-0.2-0.5-0.3c-0.2,0.4-0.4,0.6-0.7,0.8
		c-0.3,0.1-0.5,0.4-0.6,0.8c-0.3-0.5-0.7-0.6-1-0.3c-0.4,0.2-0.6,0.5-0.7,0.8c0-0.2,0-0.3-0.1-0.3s-0.1-0.1-0.1-0.3
		c0-0.3,0.1-0.5,0.2-0.5c0.2-0.1,0.2-0.2,0-0.4c0-0.5,0.1-0.5,0.2-0.3c0.1,0.3,0.3,0.4,0.5,0.3c0-0.2,0-0.4-0.1-0.5l-0.3-0.8
		c-0.5,0.2-0.9,0.2-1.3,0.1c-0.3-0.1-0.7,0-1.2,0.4c-0.1-0.4-0.1-0.6-0.1-0.6c0,0,0-0.3,0-0.8c0.3,0.1,0.6-0.2,0.8-1l0.1,0.1
		c0,0.1,0,0.2,0,0.2c0,0,0,0.1,0,0.2c0.8-0.8,1.6-1.4,2.3-1.8c0.8-0.4,1.6-0.8,2.3-1.2c0.3-0.3,0.7-0.4,1.2-0.5
		c0.5,0,0.8-0.3,0.9-0.8c0.1,0.2,0.3,0.2,0.5,0c0.2-0.2,0.4-0.1,0.5,0.1c0.1-0.2,0.1-0.3,0.2-0.4c0.1-0.1,0.2-0.3,0.3-0.5
		c0.5,0.3,1,0.2,1.5-0.3c0.5-0.5,1-0.7,1.6-0.6c0.2,0,0.3-0.2,0.3-0.5c0.3-0.1,0.7-0.1,1.1-0.1c0.4,0,0.7-0.3,0.9-1
		c-0.4-0.4-0.7-0.4-0.9-0.1c-0.2,0.3-0.5,0.5-0.7,0.5c0.1-0.4,0.3-0.7,0.6-1c0.3-0.3,0.7-0.6,1.1-0.8c0.5-0.5,1-0.8,1.6-0.9
		s1.2-0.2,2-0.2c0.1,0,0.2-0.1,0.2-0.2c0-0.1,0.1-0.3,0.1-0.5c1-0.4,1.8-0.8,2.5-1.2c0.7-0.4,1.7-0.8,3-1.3c0.1,0,0.1-0.1,0.1-0.3
		c0-0.2,0.1-0.3,0.2-0.4c0.2,0.1,0.3,0.2,0.4,0.2c0.1,0,0.2,0,0.3-0.1c0.1-0.6,0.4-1.1,0.9-1.2c0.5-0.2,0.7-0.6,0.8-1.4
		c0.4,0,0.7-0.3,0.8-0.8c0.1-0.5,0.4-0.8,0.7-0.7c0.9-2.4,2-4.5,3.2-6.2c1.2-1.8,2.3-3.7,3.2-5.8c0.4-0.4,0.6-0.8,0.6-1.4
		c0.1,0,0.1,0,0.1,0.1c0,0,0.1,0.1,0.2,0.1c0.1-1,0.5-1.8,1-2.3c0.6-0.5,0.9-1.4,1-2.7c0.9-1.1,1.7-2.4,2.4-4c0.7-1.6,1.5-2.9,2.5-4
		c0.2-0.9,0.4-1.7,0.7-2.3c0.3-0.6,0.6-1.3,1-1.9c0.4-0.6,0.7-1.2,1-1.9c0.3-0.6,0.6-1.4,0.8-2.2c0.8-1,1.4-2.2,1.9-3.6
		c0.5-1.4,1.1-2.6,1.9-3.6c0.2-0.8,0.5-1.5,0.8-2.1c0.4-0.6,0.7-1.3,0.9-2.1c0.9-1.3,1.7-2.7,2.3-4.1c0.7-1.5,1.4-2.7,2.3-3.7
		c0.1-0.2,0.1-0.3,0.2-0.4c0.1-0.1,0.1-0.3,0-0.5c1.2-1.6,2.1-3.3,2.8-5.2c1.2-2,2.4-3.9,3.6-5.6c1.1-1.7,2.2-3.6,3.1-5.6
		c0.3,0,0.6-0.2,0.7-0.6c0.2-0.4,0.3-0.8,0.4-1c0.5-0.3,0.9-0.7,1.2-1.2c0.3-0.5,0.6-1.1,1-1.5c0.2,0.3,0.4,0.3,0.5,0
		c0.2-0.3,0.4-0.5,0.6-0.5c0.1,0.3,0,0.6-0.2,0.9c-0.2,0.3-0.4,0.6-0.6,0.8c0.5,0.2,1,0.3,1.7,0.3c0.7,0,1.3,0.1,1.9,0.3
		c0.6,0.1,1.2,0.4,1.8,0.7c0.6,0.3,1,0.8,1.3,1.4c-0.1,0.3-0.1,0.5-0.1,0.8c0,0.2-0.1,0.3-0.3,0.2c0.2,0.2,0.4,0.5,0.6,1
		c0.2,0.5,0.4,0.7,0.6,0.5c0.3,0.3,0.4,0.6,0.5,1c0.1,0.4,0.3,0.7,0.6,1c-0.1,0.4-0.1,0.8,0,1.2c0.2,0.4,0.4,0.7,0.6,0.9
		c-0.1,1.2-0.1,2.3,0,3.4c0.1,1.1,0.1,2.1,0.1,3.2c0,1.1,0,2.1-0.1,3.1c-0.1,1-0.3,2.1-0.6,3.2c0,0.7,0,1.3-0.1,1.7
		c-0.1,0.4-0.1,0.8-0.2,1.2c-0.1,0.4-0.2,0.8-0.3,1.3c-0.1,0.5-0.1,1.1-0.1,1.9c-0.5,1.8-0.8,3.8-1.1,6c-0.3,2.2-0.7,4.2-1.2,5.9
		c0.1,0.8,0.1,1.7-0.1,2.7c-0.2,1-0.5,1.8-0.8,2.5c0,1.6-0.1,3-0.4,4.4c-0.3,1.4-0.5,2.8-0.6,4.3c-0.1,0-0.1,0.1-0.1,0.3
		c0,0.2-0.1,0.3-0.2,0.2c0,0.2,0,0.3,0.1,0.3s0.1,0.1,0.1,0.3c-0.5,1.8-0.8,3.5-1,5c-0.2,1.5-0.4,3.2-0.5,5c0.2,0.5,0.4,0.6,0.7,0.5
		c0.3-0.1,0.5-0.2,0.8-0.2c0.4,0.2,0.7,0.4,1.1,0.7c0.3,0.3,0.7,0.4,1.2,0.4c0.3,0,0.5-0.1,0.7-0.2s0.4-0.1,0.6,0.2
		c0.1,0.2,0.2,0.2,0.2,0.1c0-0.1,0.1-0.1,0.2-0.1c0.6,0.7,1.3,1.4,2.1,2.1c0.8,0.6,1.5,1.5,2.1,2.6c-0.1,0.2-0.2,0.4-0.1,0.8
		c0.1,0.3,0.1,0.6,0.2,0.8c0,0.2,0,0.4,0,0.5c0,0.2,0,0.3-0.1,0.3c0.1,0.2,0.1,0.4,0.2,0.7c0.1,0.3,0.3,0.5,0.6,0.7
		c0,0.2-0.1,0.3-0.2,0.5c-0.1,0.1-0.3,0.3-0.4,0.5c0.1,0.5,0.2,0.9,0.2,1c0,0.1,0.1,0.4,0.1,0.8c-0.3,0-0.3,0.2-0.2,0.6
		c0.1,0.4,0,0.7-0.2,0.8v1.2c-0.1,0.2-0.1,0.3-0.1,0.5c0,0.1-0.1,0.3-0.2,0.6c-0.9,0.5-1.9,0.9-2.8,1.2c-1,0.2-2,0.5-3,0.7
		c-1,0.2-2.1,0.5-3.2,0.8c-1.1,0.3-2.2,0.7-3.4,1.2c-0.1,0.2-0.1,0.3-0.2,0.5c-0.1,0.1-0.1,0.3,0,0.6h-0.7c-0.1,0.3-0.2,0.5-0.2,0.8
		c0,0.3-0.1,0.5-0.3,0.8c-0.1,1.7-0.4,3.6-0.9,5.6c-0.5,2-1.1,3.8-1.7,5.4c-0.3-0.5-0.3-1.3-0.1-2.3s0.1-1.6-0.3-2
		c-0.2,0.7-0.3,1.4-0.3,2.1c0,0.7,0,1.4,0,2.1H61c-0.1,0-0.2,0-0.1-0.1c0.1-0.1,0.1-0.3,0-0.5c-0.4,0.4-0.5,1-0.3,1.9
		c-0.3,0.2-0.4,0.4-0.5,0.7c-0.1,0.3-0.1,0.6-0.1,0.9c0,0.3-0.1,0.6-0.2,1c-0.1,0.3-0.3,0.5-0.5,0.6c0-0.3,0-0.6,0-0.9
		c0-0.3-0.1-0.5-0.3-0.5c0.2-0.4,0.2-0.7,0-1c-0.3,0.2-0.6,0.5-0.7,0.9c-0.1,0.4-0.2,0.9-0.3,1.4c-0.1,0.5-0.2,1-0.3,1.4
		c-0.1,0.4-0.3,0.8-0.6,1c-0.1-0.4-0.2-0.9-0.2-1.5c0-0.6,0-1.2,0-1.6c-0.2,0.2-0.3,0.5-0.2,1.1c0.1,0.5,0,0.9-0.2,1
		c-0.1,0.1-0.2,0-0.2-0.1c0-0.2-0.1-0.3-0.2-0.3c-0.1,0.2-0.2,0.4-0.3,0.6c-0.1,0.2-0.1,0.5-0.1,0.9c-0.3,0.2-0.4,0.2-0.5,0.1
		c-0.1-0.1-0.2-0.2-0.3-0.2c0-0.5,0-0.8,0-1.2c0-0.3,0-0.7,0-1c0-0.1,0-0.1,0-0.1c0,0,0,0,0-0.1c0.1-2.7,0.1-5.1,0.1-7.3
		c0-2.2,0.1-4.5,0.2-6.8c-1.5,0.1-3.3,0.2-5.5,0.4c-2.2,0.2-4,0.5-5.5,0.8c-0.2,0.1-0.3,0.2-0.3,0.4c0,0.2-0.1,0.4-0.2,0.5
		c-0.1-0.1-0.2-0.2-0.1-0.4c0.1-0.2,0-0.3-0.1-0.3c0,0.2-0.1,0.2-0.3-0.1c-0.2-0.2-0.3-0.1-0.3,0.3c-1.3-0.1-2.6,0.1-3.8,0.5
		c-1.2,0.4-2.5,0.7-3.8,0.9c-0.4,0.2-0.8,0.3-1.3,0.2c-0.5,0-0.8,0.2-1.2,0.8c-0.3-0.1-0.5-0.2-0.6-0.2c-0.1,0-0.2-0.1-0.3-0.1
		c-2.5,3.7-4.8,7.4-7,11.1c-2.2,3.8-4.6,7.2-7.1,10.4c-0.3-0.1-0.5,0-0.8,0.2c-0.3,0.2-0.5,0.5-0.7,0.8c-0.3-0.2-0.7-0.1-1.1,0.3
		c-0.4,0.4-0.8,0.4-1.4,0.1c-0.4,0.2-0.6,0.4-0.7,0.7c-0.3-0.3-0.7-0.4-1-0.3c-0.4,0.1-0.6,0-0.7-0.1c0.1-0.1,0.2-0.1,0.3-0.1
		C11.3,457.1,11.4,457.1,11.5,457z M54.2,409.2c0-0.5,0.1-0.7,0.3-0.8c0.2,0,0.4-0.3,0.6-0.8c0.1,0.4,0.3,0.5,0.5,0.3
		c0.2-0.2,0.4-0.3,0.5-0.3c0.2-4.7,0.5-9,1-13c0.5-4,0.8-8.1,1.2-12.4c-1.3,2.3-2.5,4.7-3.5,7.3c-1,2.6-2.2,5-3.6,7.1
		c-1,2.8-2.1,5.4-3.3,7.8c-1.2,2.4-2.5,4.8-3.7,7.1v0.7c1.7-0.7,3.3-1.2,4.9-1.4C50.8,410.7,52.5,410.1,54.2,409.2z"/>
	<path class="st0" d="M147.4,388.1c0.4-0.7,0.7-1.2,1-1.5c0.1,0.5,0.1,0.8-0.1,1.1c-0.2,0.3-0.4,0.5-0.6,0.7c0,0.3,0,0.5,0,0.5
		c0,0.1,0,0.3,0,0.5c-0.4,0.2-0.7,0.5-0.9,0.9c-0.2,0.4-0.4,0.8-0.5,1.2c-0.2,0.4-0.3,0.8-0.5,1.2c-0.2,0.4-0.5,0.7-0.8,1
		c0.1,0.1,0.1,0.2,0,0.4c-0.1,0.2-0.1,0.4,0,0.5c-1.4,2.4-2.5,5.1-3.4,8.3c-0.9,3.2-1.9,6.1-2.9,8.7c-0.1,0.2-0.3,0.4-0.4,0.8
		c-0.2,0.3-0.2,0.6-0.1,0.9c-0.3,0.4-0.5,0.8-0.6,1.4c-0.1,0.6-0.3,1.1-0.4,1.6c-0.5,1.3-1,2.8-1.4,4.7c-0.4,1.8-1,3.4-1.8,4.7
		c-0.1,1.1-0.4,2.2-0.9,3.2c-0.5,1.1-0.9,2.1-1.3,3.1c-0.3,0.9-0.6,1.8-0.9,2.6c-0.3,0.8-0.6,1.6-1,2.3c-0.2,1-0.4,2-0.6,2.9
		c-0.2,0.9-0.2,1.9,0,2.9c-0.1,0.2-0.3,0.3-0.5,0.3c-0.2,0-0.2,0.3-0.1,0.8c-0.4-0.2-0.7-0.2-0.9,0c-0.2,0.2-0.4,0.4-0.6,0.7
		c-0.2,0.3-0.3,0.5-0.5,0.8c-0.2,0.3-0.5,0.4-0.8,0.4c-0.1,0.3-0.3,0.5-0.4,0.7c-0.2,0.2-0.3,0.4-0.3,0.5c-0.6-0.3-1-0.8-1.3-1.6
		c-0.3,0.3-0.6,0.2-0.8-0.1c-0.2-0.4-0.5-0.6-0.8-0.8c-1.1,0.2-2-0.1-2.5-0.9c-0.6-0.8-1.1-1.6-1.6-2.5c-0.2,0.1-0.4,0.1-0.5,0
		c-0.7-1-1.2-2.2-1.6-3.7c-0.3-1.5-0.8-2.8-1.4-4c0-0.8-0.1-1.8-0.2-2.9c-0.1-1.1-0.3-2.2-0.5-3.2c-0.1-0.2-0.1-0.3-0.1-0.5
		c0-0.1-0.1-0.3-0.2-0.5c0.1-0.4,0.1-0.9,0-1.7c-0.1-0.8-0.3-1.5-0.4-2.1c-0.3-1.2-0.5-2.4-0.7-3.6c-0.2-1.2-0.4-2.4-0.5-3.6
		c-0.1-0.7-0.2-1.5-0.2-2.2c0-0.7-0.2-1.4-0.5-1.9c0-1.6-0.2-3-0.5-4.4c-0.4-1.4-0.7-2.8-1-4.4c-1.1,1.5-2.1,3-3,4.6
		c-0.9,1.6-1.8,3.2-2.8,4.9c-0.9,1.6-1.9,3.3-2.8,4.9c-0.9,1.6-2,3.2-3.1,4.7c-0.3,0.8-0.8,1.6-1.3,2.2c-0.5,0.6-1,1.3-1.5,2.1
		c-0.3,0.6-0.7,1.2-1,1.8c-0.4,0.5-0.7,1.1-1,1.6c-0.7,2.1-1.5,4.1-2.4,6c0,0.5-0.1,0.8-0.4,1.2c-0.3,0.3-0.6,0.6-1,0.9
		c-0.4,0.3-0.7,0.5-1.1,0.8c-0.4,0.3-0.6,0.6-0.6,1c-0.3,0-0.7-0.2-1.2-0.5c-0.5-0.3-0.8-0.4-1.2-0.2c-0.4,0-0.7,0.1-0.9,0.3
		c-0.2,0-0.4-0.2-0.5-0.7c-0.1,0.1-0.1,0.2-0.1,0.3c0,0.1-0.1,0.1-0.2,0.1c-0.1-0.2-0.3-0.3-0.6-0.3c-0.3,0-0.6-0.1-0.9-0.1
		c0-0.5,0-1-0.1-1.4c-0.1-0.4,0-0.8,0.1-1.3c0-0.2,0-0.2-0.1-0.1c-0.1,0.1-0.2,0.1-0.3,0.1c-0.1-0.2-0.2-0.3-0.1-0.5
		c0-0.1,0-0.3-0.1-0.5c-0.1-0.2-0.1-0.2,0,0c0,0.2,0,0.3,0,0.4c-0.6-0.6-0.9-1.6-0.8-2.9c0-1.3,0-2.3,0-3c-0.1-0.4-0.3-0.6-0.4-0.7
		c-0.2-0.1-0.3-0.3-0.4-0.5c0.1-0.9,0.3-1.5,0.4-1.6c0.5-2.1,1-4,1.6-5.8c0.6-1.7,1.2-3.5,1.8-5.2c0.9-2.6,2-4.9,3.2-7.1
		c1.2-2.2,2.2-4.6,3-7.2c0.8-1.1,1.6-2.3,2.2-3.7c0.7-1.4,1.3-2.7,2.1-4c0-0.2,0.1-0.3,0.4-0.3c0.3-0.7,0.7-1.4,1-2.1
		c0.4-0.7,0.7-1.4,1-2.1c0.8-1.1,1.5-2.5,2-4.1c0.5-1.6,1.1-3.1,1.9-4.4c0-0.1,0-0.2,0-0.2c0,0,0-0.2,0-0.5h0.4
		c-0.1-0.3-0.2-0.6-0.1-1c0-0.4-0.1-0.5-0.3-0.5c0.1-0.5,0.1-1,0.1-1.5s-0.1-1-0.4-1.4c0-0.5,0-1,0.1-1.3c0.1-0.3,0.2-0.7,0.2-1
		c0.7,0.4,1.2,0.3,1.6-0.1c0.4-0.4,0.9-0.6,1.6-0.5c0-0.3-0.1-0.4-0.2-0.3c-0.1,0-0.2-0.1-0.1-0.3c0.2,0,0.3-0.2,0.3-0.5
		c0.4,0.2,0.7,0.3,0.8,0.3c0.2,0,0.4,0.1,0.7,0.3c0.3,0,0.5-0.2,0.5-0.5c0.4,0.4,0.9,0.8,1.5,1.2c0.6,0.4,1.3,0.9,1.9,1.4
		c0.7,0.5,1.3,1,1.9,1.5c0.6,0.5,1,1,1.3,1.4c0.1-0.1,0.2-0.2,0.2-0.3c0-0.1,0.1-0.1,0.3,0c0.3,0.5,0.6,1.1,0.9,1.6
		c0.3,0.5,0.6,1.1,0.8,1.7c0.1,0.1,0.2,0.1,0.5,0.1c0,0.8,0.2,1.5,0.6,1.9c0.4,0.5,0.7,1.1,0.8,1.8c0.8,1.3,1.3,2.8,1.6,4.6
		c0.3,1.8,0.8,3.5,1.4,5c0.1,0.2,0.1,0.3,0,0.3c-0.1,0-0.1,0.2-0.1,0.3c0.8,1.4,1.4,2.9,1.8,4.7c0.4,1.7,0.8,3.5,1.1,5.2
		c0.8-1.4,1.6-2.9,2.3-4.5c0.7-1.6,1.4-3.2,2.1-4.7c0-0.2,0-0.3-0.1-0.3c-0.1,0-0.1-0.1,0-0.3c0.3,0,0.4,0,0.5-0.1
		c3.2-6.7,6.5-13,10-19c3.5-6,6.8-12.3,9.8-19c0.3-0.2,0.5-0.4,0.6-0.7c0.1-0.3,0.3-0.5,0.6-0.7c-0.1-0.2-0.1-0.3,0-0.4
		c0.1-0.1,0.1-0.2,0.1-0.4c0.3-0.4,0.5-0.7,0.8-1c0.3-0.3,0.4-0.8,0.5-1.4c0.3,0,0.4-0.1,0.5-0.3c0.1-0.2,0.2-0.3,0.4-0.4
		c0.2-1,0.6-1.8,1.1-2.4c0.6-0.6,0.9-1.4,1-2.4c0.3-0.3,0.6-0.5,0.8-0.8s0.4-0.5,0.7-0.8c0.1-0.2,0.1-0.5,0.1-1
		c2-2.7,3.9-5.5,5.9-8.2c2-2.7,4.2-5.1,6.7-7.3c0.1,0,0.2,0.1,0.2,0.3c0,0.2,0,0.4,0,0.5c0.1-0.2,0.2-0.3,0.5-0.3
		c0.1,0.1,0.2,0.3,0.2,0.5c0.3-0.1,0.6-0.1,0.7-0.1c0.2,0,0.4,0.1,0.6,0.2c0,0.6-0.1,1-0.4,1c-0.3,0-0.5,0.3-0.6,0.6
		c0.1,0.2,0.3,0.2,0.5,0.1c0.2-0.1,0.4-0.2,0.6-0.1c0.1,0.6-0.1,1.2-0.4,1.6c-0.4,0.5-0.5,0.9-0.3,1.4c-0.4,0.5-0.6,1-0.5,1.5
		c0.1,0.5,0.1,1.1,0.1,1.6c0.2,0.2,0.3,0.1,0.4-0.1c0.1-0.3,0.2-0.5,0.3-0.7c0.2,0.3,0.2,0.5,0.1,0.5c-0.1,0.1-0.2,0.2-0.3,0.4
		c-0.3,0.7-0.5,1.5-0.6,2.3c-0.1,0.8-0.4,1.6-0.7,2.3c-0.1-0.1-0.2,0-0.2,0.1c0,0.2-0.1,0.3-0.2,0.3c0,0.4,0.1,0.5,0.4,0.5
		c0.3,0,0.5,0,0.6,0.2c0,0.5-0.2,0.9-0.5,1.2c-0.4,0.4-0.6,0.8-0.8,1.2c-0.1,0.2-0.2,0.4-0.2,0.8c0,0.3-0.1,0.6-0.2,0.8
		c-0.2,0.5-0.5,0.9-0.9,1.4c-0.4,0.5-0.4,1.2-0.1,2c0.3,0.1,0.4,0,0.5-0.3c0.1-0.3,0.2-0.3,0.3-0.1c-0.1,1.3-0.5,2.4-1.2,3.4
		c-0.7,1-1.3,2-1.8,3.2c-0.1,0-0.2,0.1-0.3,0.3c-0.1,0.2-0.2,0.3-0.3,0.3c0.1,0.8,0.1,1.5-0.1,1.9c-0.2,0.5-0.3,0.9-0.2,1.4
		c-0.1-0.1-0.2-0.1-0.3,0.1c-0.1,0.1-0.2,0.3-0.3,0.3c0.1,0.7,0,1.2-0.3,1.4c-0.3,0.2-0.4,0.7-0.4,1.4c-0.5,0.4-0.8,0.8-1,1.4
		c-0.2,0.5-0.4,1.1-0.7,1.5c-0.1,0.3-0.1,0.4,0.1,0.3c0.2-0.1,0.3,0,0.1,0.3c-1.7,3.5-3.5,7.1-5.4,10.7
		C150.7,380.5,148.9,384.2,147.4,388.1z M80.2,427.6c0.1-0.2,0.1-0.3,0.2-0.3c0.1,0,0.1,0,0.1-0.1c-0.1,0-0.1-0.2-0.1-0.5
		c-0.2-0.1-0.3,0-0.4,0.3C80,427.2,80,427.4,80.2,427.6z"/>
	<path class="st0" d="M144.3,390.4c0.1-0.5,0.4-0.8,0.7-1c0.3-0.2,0.6-0.4,0.9-0.7c0.1-0.1,0.3-0.2,0.4-0.4c0.1-0.2,0.3-0.4,0.4-0.5
		c0.3-0.2,0.6-0.3,0.9-0.4c0.3-0.1,0.5-0.4,0.6-1c0,0.2,0.1,0.3,0.2,0.2c0.2,0,0.2,0.1,0.2,0.3c0.5-0.4,1.1-0.7,1.8-1
		c0.7-0.3,1.3-0.5,2-0.8c0.1-0.2,0.2-0.4,0.4-0.7c0.7-0.2,1.2-0.4,1.7-0.8c0.5-0.3,1-0.6,1.6-0.8c0.1,0,0.1-0.1,0.1-0.4
		c1.4-0.1,2.6-0.5,3.8-1.2c0-0.3,0.1-0.5,0.2-0.5c0.2-0.1,0.3-0.2,0.4-0.3c0.1-0.1,0.3-0.2,0.4-0.3c0.1-0.1,0.2-0.4,0.2-0.8
		c0.1,0.1,0.2,0.1,0.3,0.1c0.1,0,0.2-0.1,0.3-0.2c-0.3,0-0.6,0-0.9-0.1c-0.3,0-0.5-0.3-0.6-0.6c-0.7,0.1-1.4,0.2-2.1,0.3
		c-0.7,0.1-1.3,0.4-2,0.9c-0.1-0.5-0.3-0.8-0.5-0.8c-0.1,0.1-0.1,0.2,0,0.3c0,0.1,0,0.3,0,0.5c-1.4,0.8-2.7,1.4-4.1,1.9
		c-1.4,0.4-2.7,1-4.1,1.9c-0.1-0.5,0-0.7,0.1-0.7c0.2,0,0.2-0.2,0.2-0.5c-0.2,0.1-0.3,0.3-0.4,0.5c-0.1,0.3-0.2,0.3-0.5,0.1
		c0.3-0.7,0.7-1.3,1.2-1.7c0.6-0.4,1.2-0.8,1.9-1c0.1-0.3,0.1-0.7,0.1-1.4c1-1,2.1-1.8,3.2-2.3c1.1-0.5,2.2-1,3.4-1.4
		c0.1-0.2,0.2-0.3,0.2-0.5c0-0.1,0.1-0.3,0.2-0.3c0.3,0,0.5,0.1,0.5,0.3c0.3-0.3,0.6-0.6,0.8-1c0.2-0.4,0.4-0.9,0.6-1.3
		c-0.1-0.3-0.3-0.3-0.5-0.2c-0.2,0.1-0.4,0.2-0.6,0.2c-0.2-0.2-0.4-0.3-0.7-0.5c-0.3-0.1-0.6-0.1-0.9,0.2c0-0.2,0-0.3,0.1-0.5
		c0.1-0.1,0.1-0.3,0-0.6c2.5-0.7,4.6-1.7,6.4-2.8c1.8-1.1,3.7-2,5.8-2.8c0.1-0.1,0.2-0.1,0.2,0c0,0.1,0,0.2,0.1,0.3
		c0-0.2,0-0.3,0.1-0.3c0.1,0,0.1-0.2,0.2-0.3c1.7-0.1,3.3-0.6,4.9-1.4c1.6-0.8,3.2-1.2,4.9-1.2c0.1-0.1,0.2-0.2,0.2-0.4
		c0-0.2,0.1-0.4,0.2-0.6c0.2,0,0.3,0.1,0.4,0.2c0.1,0.1,0.2,0.2,0.3,0.1c1.6-0.7,3.2-1.2,5-1.5c1.8-0.2,3.4-1,5-2.3
		c0.3,0.2,0.6,0.2,0.9,0.1c0.3-0.1,0.6-0.2,0.9-0.3c0.1-0.1,0.1-0.2,0.1-0.3c2.7-0.7,5.5-1.5,8.4-2.3c2.9-0.8,5.6-1.2,8.1-1.2
		c0.1-0.1,0.2-0.2,0.3-0.3c0.1-0.1,0.2-0.3,0.3-0.5c0.4,0.3,0.8,0.4,1.3,0.4c0.8-0.1,1.6-0.2,2.4-0.2c0.8,0,1.7-0.1,2.6-0.1
		c1,0,2.1-0.1,3.2-0.3c1.1-0.2,2.1-0.2,3.2,0c0.4,0.2,0.9,0.2,1.5,0.1c0.6-0.1,1.1,0,1.7,0.1c0.3-0.5,0.6-0.6,0.9-0.4
		c0.3,0.2,0.6,0.5,0.9,0.8c0.2,0,0.4-0.1,0.7-0.3c0.7,0.5,1.3,1.1,1.8,1.9s1,1.5,1.6,2c0,0.3,0.1,0.5,0.2,0.6
		c0.1,0.1,0.2,0.3,0.1,0.6c0.2,0.1,0.4,0.3,0.5,0.6c0.1,0.3,0.3,0.6,0.4,0.9c0.1,0.3,0.3,0.6,0.4,1c0.1,0.3,0.3,0.5,0.6,0.6
		c-0.1,0.2-0.1,0.4,0,0.6c0.1,0.2,0.2,0.5,0.3,0.8c-0.1,0.6-0.3,0.8-0.4,0.8c-0.1-0.2-0.2-0.4-0.3-0.6s-0.2-0.4-0.3-0.6
		c-0.1,0.1-0.2,0.2-0.3,0.3c-0.1,0.1-0.3,0.3-0.5,0.5c0,0.2,0.1,0.3,0.2,0.3c0.1,0,0.2,0.1,0.2,0.3c-0.3,0.4-0.3,0.7-0.1,1.1
		c0.2,0.4,0.1,0.7-0.2,1c0.6,0.8,0.8,1.8,0.8,3c-0.1-0.1-0.3-0.1-0.5-0.1c0,0.3,0,0.5,0.1,0.6c0.1,0.1,0.1,0.2,0.1,0.4
		c0,0.7-0.2,1.2-0.7,1.2c0,0.3,0,0.4,0.1,0.4s0.1,0.1,0,0.3c-0.3,0-0.5,0-0.6-0.1c-0.6,0.6-1.2,0.8-1.9,0.8c-0.7,0-1.4,0.1-2,0.3
		c-1.2,0.3-2.6,0.6-4,0.9c-1.4,0.3-2.9,0.5-4.3,0.6c-0.8,0-1.6,0-2.4,0.1c-0.8,0-1.6,0-2.3-0.2c-0.1,0.2-0.4,0.3-0.7,0.3
		c-0.4,0-0.7,0-0.9,0c-0.1,0-0.1,0-0.1,0.1c0,0.1,0,0.1-0.1,0.1c-1.8,0.2-3.5,0.5-5,0.8c-1.5,0.4-3.1,0.6-4.8,0.8
		c-0.1,0.1-0.1,0.2-0.1,0.3c0,0.1-0.1,0.3-0.2,0.3c-0.1-0.2-0.2-0.3-0.3-0.2c-0.1,0-0.1,0-0.1-0.2c-0.5,1.5-1,2.8-1.6,4
		c-0.5,1.2-1,2.6-1.6,4.3c-0.8,1.6-1.6,3.3-2.4,4.9c-0.8,1.6-1.5,3.2-2.4,4.7c-0.3,1.1-0.7,2.1-1,3c-0.4,0.9-0.7,1.9-1,3
		c-0.3,0.4-0.5,0.8-0.6,1.4c-0.1,0.6-0.3,1.1-0.6,1.6c-0.2,0.3-0.4,0.5-0.5,0.6c-0.2,0.1-0.3,0.3-0.4,0.6c-0.2,0.4-0.5,1.2-1,2.5
		c-0.5,1.3-1,2.7-1.6,4.2s-1.1,2.9-1.7,4.3c-0.5,1.3-0.9,2.2-1.1,2.7c-0.1,0.4-0.4,1.1-0.7,2.3c-0.4,1.1-0.8,2.4-1.2,3.6
		c-0.5,1.3-0.9,2.5-1.3,3.6c-0.4,1.1-0.7,1.9-0.8,2.1c-0.1,0-0.2,0-0.2-0.1c0,0-0.1,0-0.2,0.1c-1.1,2-2.1,4.3-2.8,7
		c-0.3,0.5-0.6,1.2-0.9,1.9c-0.3,0.7-0.6,1.4-0.9,2.1c-0.3,0.5-0.7,1-1,1.4c-0.4,0.4-0.7,0.9-1,1.6c-0.1,0.4-0.3,0.8-0.4,1.2
		c-0.1,0.5-0.3,0.9-0.4,1.2c-0.2,0.5-0.4,1-0.7,1.4c-0.3,0.4-0.6,0.8-0.9,1.2c-0.1,0.3-0.2,0.5-0.3,0.8c-0.1,0.2-0.2,0.3-0.4,0.3
		c0,0.3-0.1,0.5-0.2,0.8c-0.1,0.3-0.2,0.5-0.1,0.8l-0.2,0.3c-0.1,0.1-0.2,0.1-0.2-0.1c0-0.1-0.1-0.3-0.2-0.3
		c-0.1,0.5-0.2,1.1-0.3,1.8c-0.1,0.6-0.2,1.3-0.4,2.1c-0.4,0.2-0.8,0.2-1.2-0.1c-0.4-0.2-0.8-0.2-1.4,0.1c0.1-0.7,0.1-1.3-0.2-1.7
		c-0.3-0.4-0.3-0.9-0.1-1.4c-0.1,0-0.2,0.1-0.2,0.3c0,0.2-0.1,0.2-0.2,0.1c-0.3-0.3-0.6-0.5-0.8-0.7c-0.2-0.2-0.5-0.1-0.8,0.1
		c-0.5-0.5-0.8-1.2-1.2-1.9c-0.3-0.7-0.8-1.1-1.4-1.3c0-0.3,0-0.5-0.1-0.5c-0.1-0.1-0.1-0.3,0-0.5c-0.6-0.1-1-0.4-1.2-1
		c-0.2-0.6-0.3-1.2-0.2-1.9c0-0.7,0.1-1.4,0.3-2.1c0.2-0.7,0.4-1.4,0.7-1.9c0.1-0.2,0.1-0.3,0-0.3c-0.1,0-0.1-0.1-0.2-0.4
		c0.7-2.5,1.5-4.8,2.3-7c0.8-2.2,1.6-4.4,2.3-6.7c0-0.1,0.1-0.6,0.3-1.4c0.2-0.9,0.5-1.8,0.8-2.9c0.3-1.1,0.6-2,0.8-2.9
		c0.3-0.9,0.4-1.4,0.4-1.6c0.3-0.4,0.8-1.2,1.3-2.6c0.6-1.4,1.1-2.9,1.7-4.5c0.6-1.6,1.1-3.2,1.7-4.7c0.5-1.5,0.9-2.5,1.1-3
		c-0.1-0.5,0.1-1.1,0.5-1.8c0.4-0.6,0.7-1.3,0.8-2.1c0.1-0.2,0.1-0.3,0-0.5c0-0.1,0-0.3,0-0.5c0.3-1,0.7-2,1.3-2.9
		c0.5-0.9,1-1.9,1.4-2.9c0.3-0.7,0.6-1.4,0.7-2c0.2-0.6,0.4-1.1,0.7-1.6v-0.5c0.3-0.4,0.5-0.8,0.6-1.3c0.2-0.5,0.3-0.9,0.5-1.3
		c0.1-0.2,0.1-0.3,0-0.3c-0.1,0-0.2-0.1-0.2-0.3c0.1-0.5,0.3-0.8,0.4-1c0.2-0.2,0.3-0.5,0.4-0.8c-0.1-0.2-0.2-0.3-0.3-0.2
		c-0.1,0-0.2,0.1-0.4,0.1v-0.7c-1.6,0.1-3.3,0.3-5.1,0.6c-1.8,0.3-3.6,0.7-5.4,1.2c-0.1,0-0.2-0.1-0.2-0.4c-0.5,0.2-1,0.3-1.3,0.3
		c-0.4,0-0.8,0.1-1.4,0.2c-0.6,0.1-1.2,0.3-1.7,0.7c-0.6,0.4-1.1,0.6-1.7,0.8h-0.8c-0.6,0.3-1.1,0.5-1.6,0.6c-0.5,0.1-1,0.5-1.5,1
		c-0.7-0.1-1.3,0.1-1.9,0.6c-0.6,0.5-1.1,0.7-1.7,0.5c-0.2,0.1-0.3,0.3-0.3,0.5c0,0.2-0.1,0.4-0.1,0.6c-0.2,0-0.4-0.1-0.7-0.3
		c-0.5,0.3-1,0.5-1.6,0.8c-0.6,0.2-1.2,0.3-1.9,0.1c-0.3,0.3-0.6,0.5-1,0.5c-0.4,0.1-0.7,0.2-1.1,0.3c-0.8,0.2-1.4,0.3-2,0.3
		c-0.6,0-1.2-0.1-1.9-0.3c0.1-0.2,0.1-0.3,0-0.3C144.3,390.7,144.3,390.6,144.3,390.4z M160.6,377.6c0.1,0.2,0,0.3,0,0.3
		c-0.1,0-0.1,0.1-0.1,0.3c0.1,0,0.2-0.1,0.3-0.2S160.8,377.7,160.6,377.6z M162.2,434.7c-0.1-0.3-0.1-0.3-0.2,0
		c-0.1,0.3-0.1,0.5-0.2,0.7c0.1,0.1,0.2,0,0.2-0.3S162.1,434.7,162.2,434.7z M169.7,448.5c-0.1-0.2,0-0.3,0.1-0.3
		c0.1,0,0.1-0.1,0-0.3c-0.1,0-0.2,0.1-0.2,0.3C169.5,448.4,169.5,448.5,169.7,448.5z M170.5,447.5c-0.1,0.2-0.2,0.3-0.3,0.3
		c-0.1,0-0.2,0.1-0.1,0.3c0.1,0,0.2,0,0.3-0.1C170.6,447.8,170.6,447.7,170.5,447.5z M192,396.8c0,0.5-0.1,0.8-0.2,1
		c-0.2,0.2-0.2,0.5-0.1,0.8c0.1-0.3,0.2-0.6,0.3-0.9C192.2,397.4,192.2,397.1,192,396.8z"/>
	<path class="st0" d="M239.1,457.9c-0.2,0.3-0.3,0.6-0.4,1s-0.3,0.7-0.7,0.8c0.1,0.7,0.1,1.3-0.2,1.8c-0.3,0.5-0.7,0.7-1.4,0.7
		c0-0.4,0-0.6,0-0.7c0-0.1-0.1-0.3-0.2-0.7c-0.1,0-0.3,0-0.4,0.1c-0.1,0.1-0.3,0-0.4-0.1c-0.1,0.2-0.2,0.4-0.1,0.8
		c0,0.3,0,0.6,0,0.8c-0.7-0.1-1.3-0.3-1.8-0.6c-0.5-0.3-0.7-0.9-0.7-1.7c-0.4-0.2-0.7-0.2-1-0.1c-0.3,0.1-0.6,0-1-0.1
		c0.2-1.2-0.2-1.9-1.2-2.2c-0.2-2.4-0.1-4.6,0.2-6.6c0.4-2,0.7-4.2,1-6.6c-0.2,0.2-0.3,0.4-0.4,0.8c-0.1,0.3-0.2,0.6-0.3,0.8
		c0.2-0.8,0.5-1.8,0.8-3c0.3-1.1,0.7-2,1.3-2.7c0.4-1.1,0.7-2.3,1-3.6c0.3-1.3,0.6-2.5,0.9-3.6c0.1-0.2,0.3-0.4,0.4-0.6
		c0.1-0.2,0.3-0.5,0.4-0.8c0.3-0.7,0.6-1.5,0.7-2.3c0.1-0.8,0.4-1.4,0.9-1.9c0-0.2,0-0.3,0-0.3c0,0,0-0.1,0-0.3
		c1-2.2,1.9-4.6,2.7-7.2s1.7-5.1,2.8-7.5c-0.9,0-1.9,0-3.1-0.1c-1.1-0.1-2.3,0-3.6,0.3c-0.5,0.2-0.9,0.4-1.5,0.7
		c-0.5,0.3-1,0.5-1.6,0.7c-0.5,0-1,0-1.7-0.1c-0.7,0-1.3,0-1.9,0c-0.6,0-1.1,0.2-1.5,0.4c-0.4,0.2-0.6,0.7-0.6,1.3
		c-1.7,2.7-3.1,5.6-4.3,8.8c-1.2,3.2-2.6,6.1-4.2,8.8c-0.1,0-0.2,0-0.2,0.1c0,0.1-0.1,0.1-0.2,0c-0.3,0.7-0.7,1.2-1.2,1.5
		c-0.5,0.3-0.8,0.7-1.2,1.2c-0.7-0.3-1.3-0.2-1.8,0.1c-0.5,0.4-1.2,0.5-2.1,0.4c-0.1-0.2-0.1-0.4-0.1-0.5c0-0.2,0-0.5,0-0.8
		c-0.1,0.2-0.2,0.4-0.2,0.6c0,0.2-0.2,0.3-0.4,0.2c-0.3-0.2-0.3-0.5-0.1-0.8c0.2-0.4,0.2-0.8-0.1-1.2c-0.3,0.1-0.5,0.2-0.6,0.4
		c-0.1,0.2-0.4,0.3-0.7,0.4c0-0.2,0-0.3-0.1-0.4c-0.1-0.1-0.1-0.2,0-0.4c-0.4,0.5-0.7,0.5-1,0c-0.3-0.5-0.5-0.9-0.7-1.2
		c-0.2,0.4-0.2,0.6,0,0.8c0.2,0.2,0.3,0.4,0.2,0.7c-0.4,0.2-0.6,0-0.6-0.7c0-0.6,0-1.4,0-2.2c0-0.8,0-1.6,0-2.3s-0.1-1.1-0.4-1.2
		c0.3-0.3,0.3-0.7,0-1.4c0-0.3,0.1-0.5,0.2-0.6c0.1-0.1,0.3-0.3,0.4-0.6c0.1-1.5,0.1-3,0.2-4.5c0.1-1.6,0.3-2.9,0.7-4.1h-0.3
		c0-0.3,0-0.4,0.1-0.5c0.1,0,0.2-0.2,0.3-0.3c-0.7-0.3-1.3-0.3-1.9-0.1c-0.5,0.2-1.2,0.3-2,0.4c-0.7-0.5-1.5-0.8-2.4-0.6
		c-0.9,0.1-1.7,0.3-2.4,0.6c-0.1-0.4-0.2-0.5-0.5-0.5c-0.3,0-0.5,0-0.8,0c-0.3,0-0.6,0-0.8-0.1c-0.2-0.1-0.4-0.4-0.4-0.8
		c-0.3-0.2-0.7-0.3-1.2-0.2c-0.5,0-0.8-0.1-0.9-0.5c0.3-0.2,0.6-0.2,0.8-0.1c0.2,0.1,0.5,0.1,0.9,0.1c-0.1-0.2-0.3-0.3-0.4-0.3
		c-0.2,0-0.2-0.2-0.1-0.5c-0.4,0.2-0.8,0.1-1.1-0.2c-0.4-0.3-0.7-0.5-1-0.5c-0.2,0-0.4,0.1-0.5,0.2c-0.1,0.1-0.3,0.3-0.6,0.5
		c-0.7,0.2-1.3,0.1-1.9-0.1c-0.6-0.3-1.2-0.5-1.8-0.8c-0.6-0.3-1.1-0.5-1.7-0.5c-0.6-0.1-1.1,0.1-1.6,0.7c-0.3-0.5-0.7-0.7-1.2-0.5
		c-0.5,0.2-0.8,0.4-1.2,0.5c-0.1-0.5-0.1-0.7,0.1-0.8c0.2,0,0.4-0.2,0.5-0.5c-0.9-0.3-1.7-0.4-2.3-0.4c0.1-0.5,0.4-0.9,0.7-1
		c0.4-0.1,0.7-0.1,1,0c0.3-0.6,0.7-1.1,1.4-1.2c0.1,0,0.3,0.1,0.4,0.2c0.1,0.1,0.3,0.2,0.5,0.1c0.1,0,0.2,0,0.3-0.1
		c0.2-0.1,0.3-0.1,0.4-0.1c1-0.5,2-0.9,3.2-1.4c1.1-0.5,2.4-0.8,3.7-1c1.7-0.2,3.3-0.6,4.9-1.2c1.6-0.6,3.1-1,4.6-1.3
		c0.9-0.2,2-0.4,3.2-0.7c1.2-0.3,2.4-0.6,3.6-1.1c0.4-0.2,0.8-0.4,1.2-0.6c0.4-0.2,0.8-0.4,1.3-0.5c0.1,0,0.3,0,0.5,0.1
		c0.2,0,0.4,0,0.5-0.1c0.4-0.2,0.7-0.7,0.9-1.5c0.2-0.8,0.3-1.5,0.4-2.1c0.3-0.3,0.6-0.6,0.7-1c0.1-0.4,0.2-0.8,0.3-1.2
		c0.1-0.4,0.2-0.8,0.4-1.2c0.2-0.4,0.4-0.8,0.8-1c0-0.8,0.1-1.5,0.2-2.1c0.2-0.5,0.4-1.1,0.6-1.6c0.2-0.5,0.5-1.1,0.7-1.7
		c0.2-0.6,0.4-1.3,0.4-2c0.2,0,0.3-0.1,0.3-0.3c0-0.2,0.1-0.3,0.3-0.3c0.4-1.3,0.8-2.5,1.2-3.8c0.4-1.2,0.9-2.4,1.3-3.6
		c1.4-1.8,2.5-3.9,3.4-6.3c0.9-2.4,1.8-4.6,2.9-6.7c0.6-1.3,1.3-2.5,2.2-3.6c0.8-1.1,1.5-2.5,2-4.2c-0.1-0.2-0.1-0.3,0-0.4
		c0.1-0.1,0.1-0.3,0-0.5c0.7-0.9,1.5-1.7,2.4-2.4c0.9-0.7,1.8-1.1,2.7-1.2c0.1,0.1,0.2,0,0.2-0.1c0-0.2,0.1-0.4,0.2-0.5
		c0.6,0.2,1.1,0.3,1.4,0.5c0.4,0.1,0.7,0.2,1,0.3c0.3,0,0.7,0.1,1,0.1c0.4,0,0.8,0.1,1.3,0.2c0,0.3,0.1,0.5,0.2,0.5
		c0.1,0.1,0.2,0.2,0.3,0.4c0.3-0.3,0.6-0.5,0.8-0.7c0.2-0.2,0.5-0.1,0.9,0.1c0.1,0.2,0.1,0.3,0,0.4c0,0.1,0,0.3,0,0.7
		c0.3,0.1,0.4,0,0.5-0.1c0.1-0.2,0.3-0.3,0.5-0.3c0.3,0,0.6,0.1,0.8,0.4c0.4-0.3,0.7-0.3,1-0.1c0.3,0.2,0.5,0.5,0.7,1
		s0.4,0.8,0.6,1.3c0.2,0.5,0.5,0.7,0.8,0.8c0,0.5,0,0.8,0.1,0.9s0.1,0.3,0,0.6c0.1,0.2,0.3,0.3,0.5,0.3s0.4,0,0.5,0.1
		c0.5,1.3,0.7,2.5,0.6,3.5c-0.1,1.1-0.3,2.2-0.4,3.5c-0.3-0.2-0.5-0.1-0.6,0.3c-0.1,0.4-0.3,0.5-0.6,0.5c-0.3,1.1-0.6,2.2-1.1,3.2
		c-0.5,1-0.8,2-0.9,3c-0.3,0.5-0.7,0.9-1,1.4c-0.3,0.5-0.5,1.1-0.5,1.9c-0.2,0.2-0.4,0.3-0.5,0.5c-0.2,0.1-0.2,0.4,0,0.9
		c-0.3-0.2-0.4-0.2-0.3,0.1c0,0.2,0,0.3-0.2,0.2c-0.7,1.7-1.5,3.3-2.2,4.8c-0.8,1.5-1.6,2.9-2.3,4.3c-0.8,1.4-1.6,2.9-2.3,4.4
		c-0.8,1.5-1.5,3.1-2.2,4.9c0.5-0.2,1-0.3,1.7-0.3c0.7,0,1.3-0.1,1.9-0.1s1.2,0,1.8-0.1c0.6-0.1,1-0.3,1.4-0.5
		c1.9,0,3.8-0.1,5.6-0.3c1.9-0.2,3.3-1.1,4.3-2.9c0.7-2,1.4-3.8,2.3-5.4c0.9-1.6,1.7-3.2,2.4-5.1c1.1-1.2,1.9-2.6,2.3-4.1
		c0.7-0.9,1.3-2,2-3.3c0.7-1.3,1.3-2.4,2.1-3.3v-0.7c0.3-0.4,0.6-0.8,0.8-1.2c0.2-0.4,0.4-0.8,0.7-1.3c0.6-1.2,1.3-2.3,2.2-3.2
		c0.8-1,1.6-2.1,2.3-3.4c0.1-0.3,0.2-0.5,0.3-0.8c0.1-0.3,0.2-0.5,0.3-0.8c0.3-0.5,0.7-1,1.1-1.4c0.4-0.4,0.7-0.8,1.1-1.4
		c0.1-0.3,0.3-0.6,0.4-1.1c0.2-0.5,0.4-0.8,0.6-1.1c0.1-0.2,0.3-0.4,0.6-0.6c0.3-0.2,0.4-0.6,0.4-1c0.9-1.5,2-2.7,3.3-3.6
		c1.3-1,2.4-2.2,3.3-3.8c0.2-0.3,0.5-0.5,0.8-0.6s0.6-0.3,0.8-0.5c0.1-0.2,0.2-0.3,0.3-0.5c0.1-0.1,0.2-0.4,0.1-0.8
		c0.3-0.4,0.7-0.6,1.1-0.8c0.4-0.2,0.7-0.5,0.9-1c0.1,0,0.2,0,0.2,0.1c0,0,0.1,0.1,0.2,0.1c0.5-0.6,1-1.1,1.6-1.2
		c0.6-0.2,1.3-0.2,1.9-0.1c0.7,0.1,1.3,0.3,1.9,0.5c0.6,0.3,1.2,0.5,1.7,0.8c-0.2,0.2-0.2,0.4-0.1,0.5c0.1,0.2,0,0.3-0.3,0.3
		c0.1,0.1,0.3,0.1,0.4,0.1c0.2,0,0.2,0.2,0,0.5c0.3-0.3,0.5-0.3,0.7-0.2c0.2,0.1,0.5,0.2,0.8,0.1c0.1,0.5,0.3,1.1,0.4,1.5
		c0.2,0.5,0.5,0.7,1,0.7c-0.2,0.5-0.3,1.1-0.2,1.6s0.2,1.1,0.3,1.6c0.1,0.5,0.2,1,0.3,1.5c0.1,0.5,0.1,1,0,1.4
		c-0.1,0.1,0,0.1,0.3,0.1c-0.1,0.6-0.4,1-0.7,1.1c-0.1,1.1-0.2,2-0.5,2.6c-0.3,0.6-0.6,1.3-1,1.9c-0.4,0.6-0.7,1.2-1.1,1.9
		c-0.4,0.6-0.6,1.4-0.6,2.3c-0.3-0.4-0.5-0.3-0.6,0.3c-0.1,0.5-0.1,0.9-0.2,1c-0.3,0.7-0.8,1.4-1.5,2c-0.7,0.6-1.1,1.1-1.5,1.6
		c-0.1,0.3,0,0.4,0.1,0.5c0.1,0,0.2,0.2,0.2,0.3c-0.5,0.5-1,0.9-1.5,1.3c-0.5,0.4-0.8,1-0.9,1.9c-2.3,3.6-4.5,7.2-6.5,10.8
		c-2.1,3.7-4.2,7.3-6.5,10.8c0.5,0.5,0.7,0.9,0.8,1.3s0.5,0.6,1.2,0.6c0.3,0.8,0.7,1.4,1.2,1.8c0.5,0.4,1.1,0.3,1.9-0.1
		c0.7,0.5,1,1.1,1,2c0,0.9,0,1.8-0.1,2.8c0,0.4,0.1,0.5,0.4,0.5c0.3,0,0.4,0.1,0.4,0.5c-0.2,0.4-0.4,0.5-0.6,0.5
		c-0.2,0-0.4,0.1-0.7,0.3c0.1,0.3,0.2,0.4,0.4,0.3c0.2-0.1,0.4-0.2,0.5-0.3c0.2,0.7,0.2,1.3,0,1.8c-0.2,0.5-0.5,0.8-0.8,1.2
		c-0.3,0.3-0.7,0.6-1.1,0.9c-0.4,0.3-0.7,0.6-0.9,1.1c-0.7,0.1-1.3,0.3-1.7,0.8c-0.4,0.4-0.9,0.9-1.3,1.4c-0.5,0-0.8,0-1.2-0.1
		c-0.3,0-0.8-0.1-1.3-0.2c-0.2,0-0.3,0.1-0.4,0.2c-0.1,0.1-0.2,0.3-0.3,0.3c-0.8-0.2-1.5-0.2-2.2-0.1c-0.7,0.1-1.3,0.3-2,0.5
		c-0.7,0.2-1.4,0.4-2.1,0.6c-0.8,0.2-1.6,0.3-2.5,0.3c-1.1,1.6-2.1,3.4-2.9,5.1c-0.8,1.8-1.7,3.6-2.4,5.6c-1.8,2.1-3,4.9-3.8,8.2
		c-0.6,0.7-1.1,1.6-1.5,2.7c-0.4,1.1-0.8,2.1-1.2,3.1c-0.8,1.6-1.6,3.3-2.2,5.1c-0.7,1.8-1.4,3.6-2.2,5.2c-0.5,1.7-1.2,3.2-2,4.5
		c-0.8,1.2-1.4,2.9-1.8,4.9c-0.5,0.7-0.9,1.7-1.2,3c-0.3,1.2-0.8,2.1-1.6,2.5c0-0.5,0.1-0.8,0.2-1
		C239,458.7,239.1,458.4,239.1,457.9z M234,353.4c-0.2,0-0.3,0.1-0.4,0.3c-0.1,0.2-0.2,0.5-0.3,0.8c0.1-0.2,0.2-0.4,0.3-0.5
		C233.7,353.8,233.8,353.6,234,353.4z M292.6,343.4c-0.1-0.2-0.2-0.3-0.3-0.3c-0.2,0-0.2,0.1-0.2,0.4c0.1,0,0.3,0,0.4,0.1
		C292.5,343.7,292.6,343.6,292.6,343.4z"/>
	<path class="st0" d="M280.8,393.5c0.3,0,0.6-0.2,0.8-0.5c0.2-0.3,0.4-0.7,0.6-1.1c0.2-0.4,0.4-0.8,0.5-1.3c0.2-0.5,0.4-0.8,0.7-1
		c-0.1-0.4-0.1-0.6,0-0.7c0.1-0.1,0.1-0.3,0.1-0.7c0.1,0,0.2-0.1,0.3-0.2c0.1-0.1,0.2-0.2,0.3-0.1c0.7-1.9,1.6-3.8,2.5-5.6
		c1-1.8,1.9-3.7,2.8-5.6c-0.4-0.3-0.7-0.2-0.9,0.1c-0.2,0.4-0.4,0.7-0.6,1c-1.8,0.5-3.3,1-4.5,1.6c-1.2,0.6-2.6,1.2-4,1.6
		c-0.1-0.8,0.3-1.6,1.2-2.3c0.8-0.7,1.6-1.3,2.2-1.8c0.1,0,0.1-0.1,0.1-0.4c0.8-0.2,1.4-0.6,2-1.3c0.6-0.7,1.2-1,1.9-1
		c0.3-0.4,0.4-0.8,0.4-1.2c-0.5,0.2-0.9,0.5-1.3,0.9c-0.3,0.4-0.7,0.8-1.1,1c-0.2,0-0.3-0.1-0.3-0.2c0-0.1-0.1-0.3-0.2-0.5
		c-0.3,0.2-0.6,0.4-0.8,0.8c-0.2,0.3-0.6,0.4-1.1,0.3c0.2-0.5,0.5-0.8,0.8-1.1c0.3-0.3,0.7-0.5,1-0.7c0.3-0.2,0.7-0.4,1-0.7
		c0.3-0.3,0.6-0.7,0.8-1.2l-0.3-0.4c-0.4,0.5-0.9,0.8-1.4,0.9c-0.6,0.1-0.9,0.6-1,1.3l-0.4-0.3c-1.2,1-2.3,2-3.4,3.1
		c-1.1,1.1-2.3,1.9-3.6,2.7c-0.2,0-0.3-0.1-0.3-0.2s-0.1-0.2-0.2-0.2c-0.4,0.4-0.8,0.7-1.2,0.9c-0.4,0.2-0.8,0.5-1.2,0.9
		c0.2-1.1,0.6-1.9,1.1-2.3c0.5-0.5,1.1-0.9,1.7-1.2c0.6-0.4,1.2-0.7,1.7-1.1c0.6-0.4,1-1,1.3-1.8c0.7-0.5,1.4-1,2.1-1.5
		c2.8-3.2,6-6,9.5-8.4c3.5-2.4,7.2-4.6,10.9-6.7c0.5-0.6,0.8-1.3,1-1.9c0.1-0.2,0.2-0.3,0.3-0.3c0.1,0,0.2,0,0.3-0.1
		c0.7-1.2,1.4-2.3,2.2-3.4c0.7-1.1,1.6-2.1,2.5-3.2c0.3-0.6,0.7-1.2,1.1-1.6c0.4-0.5,0.9-0.8,1.3-1c0.4-0.8,1-1.3,1.9-1.5
		c0.3,0.2,0.6,0.5,0.7,1.1c0.2,0.5,0.2,1.1,0,1.5c0.4,0.5,0.8,0.6,1.2,0.5c0.4-0.1,0.8-0.2,1.3-0.1c0.5,0.8,1.3,1.4,2.2,1.7
		c0.9,0.3,1.8,0.8,2.5,1.4c0.1,0.5,0.1,0.8-0.1,1.1c-0.2,0.3-0.3,0.6-0.3,1.1c1-0.2,1.9-0.3,2.6-0.2c0.7,0,1.5,0,2.5-0.2
		c0.2-0.1,0.3,0,0.2,0.2c0,0.2,0,0.3,0.1,0.3c2.2,0.1,4.2,0.4,5.9,1c1.7,0.6,3.5,1.3,5.4,2c0.4,0.7,1,1.2,1.8,1.4
		c0.8,0.2,1.4,0.8,1.8,1.6c0.1,0,0.2-0.1,0.2-0.2c0-0.1,0.1-0.2,0.2-0.1c0.7,0.9,1.3,1.9,1.9,2.8c0.6,1,1.4,1.8,2.2,2.5
		c0,0.5,0.1,0.8,0.3,1c0.2,0.2,0.4,0.4,0.6,0.7c0.4,0.8,0.7,1.8,1,2.8c0.3,1.1,0.6,2,1,3c0.2,0.5,0.5,1.2,0.8,1.9
		c0.3,0.7,0.6,1.4,0.7,2c0.1,0.8,0,1.6-0.2,2.5c-0.2,0.8-0.2,1.7-0.1,2.7c-0.5,1.8-1,3.6-1.6,5.3c-0.6,1.7-1.1,3.5-1.4,5.3
		c-0.3,0.6-0.5,1.1-0.8,1.2c-0.5,1.2-0.9,2.3-1.3,3.4c-0.4,1.1-1,2.1-1.7,2.9c-0.3,1-0.8,1.8-1.4,2.3c-0.6,0.5-0.9,1.2-1.1,2.1
		c-0.4,0-0.6,0.3-0.5,1h-0.8c-0.5,0.7-1,1.5-1.4,2.3c-0.4,0.8-1,1.5-1.7,1.9c-0.5,1.3-1.1,2.3-1.9,3.1c-0.8,0.8-1.4,1.7-2,2.8
		c-0.4,0.1-0.7,0.3-0.9,0.6c-0.2,0.3-0.4,0.7-0.6,1.2c-1.1,1.1-2.2,2.2-3.4,3.4c-1.1,1.1-2.2,2.4-3.3,3.8c-2.8,2.2-5.4,4.9-7.9,8
		c-0.1,0.5-0.1,0.7-0.1,0.8c0,0.1-0.1,0.3-0.2,0.7c-0.3,0.2-0.5,0.5-0.6,0.8c-0.1-0.2-0.2-0.2-0.3,0c-0.1,0.2-0.2,0.2-0.2,0
		c-2,2.2-4.3,4-6.9,5.5c-2.6,1.5-5.1,3.2-7.5,5.2c-1,0.2-2,0.4-2.9,0.6c-0.9,0.2-1.7,0.7-2.5,1.4c-0.1,0.2-0.2,0.2-0.3,0.1
		c-0.1-0.1-0.2-0.2-0.3-0.3c-0.3,0.2-0.6,0.3-0.9,0.3c-0.3,0-0.5,0.2-0.7,0.3c-1.1,0.2-2.3,0.3-3.6,0.3c-1.3,0-2.5-0.1-3.6-0.3
		c-0.7-0.2-1.2-0.4-1.8-0.7c-0.5-0.3-1-0.5-1.6-0.7c-0.1-0.3-0.3-0.5-0.5-0.8c-0.2-0.2-0.4-0.3-0.6-0.1c-0.3-0.6-0.7-1.2-1.1-1.6
		c-0.4-0.4-0.7-1-0.9-1.7c-0.1,0-0.2,0-0.2-0.1c0-0.2-0.1-0.3-0.2-0.2c-0.1,0-0.3,0.1-0.4,0.1c0-0.7-0.1-1.2-0.2-1.4
		c-0.6-0.9-1.1-2-1.6-3.2c-0.5-1.2-0.8-2.6-1.1-4.1c-0.1-0.7-0.3-1.5-0.5-2.3c-0.2-0.8-0.4-1.6-0.5-2.3c-0.1-0.5-0.2-1-0.3-1.5
		c-0.1-0.5-0.2-1-0.2-1.4c0-0.5,0.1-1,0.3-1.4c0.2-0.4,0.4-0.9,0.4-1.6c0-1,0.1-2,0.2-2.9c0.1-0.9,0.3-1.9,0.5-2.9
		c0.3-1.1,0.5-2.2,0.8-3.4c0.3-1.2,0.6-2.3,0.9-3.4c0.2-0.7,0.4-1.4,0.7-1.9c0.3-0.5,0.5-1.1,0.7-1.8c0.1-0.3,0.1-0.6,0.1-1
		c0-0.4,0.1-0.6,0.2-0.8c0.1-0.2,0.2-0.3,0.3-0.5c0.1-0.1,0.2-0.3,0.2-0.5l0.2-0.7l0.3-0.7c0.1-0.3,0.2-0.5,0.2-0.6s0.1-0.4,0.2-0.9
		c0.1-0.5,0.4-1,0.7-1.5c0.4-0.5,0.6-1.1,0.8-1.5c0.1-0.3,0.2-0.5,0.2-0.8c0-0.3,0.1-0.5,0.3-0.7c-0.1-0.4-0.1-0.6-0.1-0.7
		C280.7,394.3,280.7,394,280.8,393.5z M289.5,426.2c0.1,0,0.2,0,0.2,0.1c0,0.1,0.1,0.1,0.2,0c1.4-0.9,2.9-1.7,4.5-2.4s3-1.7,4.2-3
		c0.5,0.2,1,0,1.4-0.5c0.4-0.5,0.8-0.8,1.2-0.8c0.1-0.1,0.2-0.2,0.1-0.4c-0.1-0.2,0-0.3,0.1-0.3c0.1-0.2,0.3-0.2,0.4-0.1
		c0.1,0.1,0.3,0.1,0.4,0.1c0.1-0.3,0.3-0.5,0.4-0.5c0.1-0.1,0.3-0.3,0.4-0.5c0.1,0.1,0.2,0.1,0.3,0.1c0.1,0,0.2-0.1,0.4-0.1
		c0.8-0.7,1.6-1.4,2.5-2c0.9-0.6,1.8-1.3,2.6-2c0.5-0.9,1-1.6,1.7-2.1c0.7-0.5,1.3-1,1.9-1.4c0-0.2,0-0.3,0.1-0.3
		c0-0.5,0.1-0.8,0.2-0.9c0.2-0.1,0.3-0.3,0.3-0.5c0.5,0.2,1-0.1,1.4-0.9c0.4-0.8,0.9-1.3,1.5-1.4c0.3-0.7,0.7-1.3,1.2-1.7
		c0.5-0.4,1-0.8,1.5-1.3c0.8-1.3,1.6-2.5,2.5-3.6c0.9-1.1,1.8-2.2,2.8-3.2c1.5-2.5,3-4.9,4.5-7.4c1.5-2.5,2.9-5,4.3-7.7
		c0.4-1.3,0.7-2.5,0.9-3.6c0.2-1.1,0-2.3-0.6-3.6c-1.9-1.3-4-2.4-6.3-3.4c-2.3-1-4.7-1.4-7.1-1.3c-1.6,0-3,0.2-4.4,0.7
		c-1.4,0.5-2.8,0.8-4.4,1.1c-0.4,0.6-0.8,1.3-1.2,2c-0.4,0.7-0.9,1.3-1.5,1.7c-0.4,0.7-0.7,1.5-1,2.3c-0.3,0.8-0.7,1.4-1.3,1.9
		c0.1,0.4,0.1,0.7-0.2,0.9c-0.3,0.2-0.4,0.6-0.5,1c-0.5,0.4-0.8,0.8-1.1,1.4c-0.3,0.6-0.6,1.1-1.1,1.6c-0.1,0.2-0.2,0.3-0.1,0.3
		c0.1,0,0.1,0.1,0.1,0.3c-0.7,0.7-1.3,1.6-1.6,2.5c-0.4,1-0.8,1.9-1.4,2.7c0.1,0.4,0,0.7-0.2,1.1c-0.3,0.4-0.4,0.7-0.3,1
		c-0.3,0.4-0.7,0.7-1,1.1c-0.4,0.4-0.6,0.9-0.7,1.6c-0.1,0.2-0.3,0.3-0.4,0.3c-0.1,0-0.3,0.2-0.4,0.3c0,0.5,0,0.7-0.1,0.8
		c-0.1,0-0.1,0.3-0.1,0.9c-0.8,1-1.5,2.1-2.1,3.2c-0.6,1.1-1.1,2.4-1.6,3.6c-0.5,1.2-1.1,2.4-1.6,3.6c-0.6,1.2-1.1,2.5-1.5,4
		c-0.2-0.1-0.3,0-0.2,0.1c0,0.2,0,0.3-0.2,0.3c-0.3,1.4-0.8,2.7-1.3,4.1c-0.5,1.3-0.8,2.7-1,4.2c-0.1,0.2-0.2,0.3-0.3,0.4
		c-0.1,0.1-0.2,0.2-0.3,0.3c0.2,0.9,0.1,1.7-0.3,2.5c-0.4,0.7-0.6,1.6-0.4,2.6c-0.1,0.3-0.2,0.5-0.3,0.8c-0.1,0.2-0.1,0.6-0.1,1
		c0.7,0.2,1.5,0.1,2.4-0.2C288.5,427.2,289.1,426.8,289.5,426.2z"/>
	<path class="st0" d="M403.3,388.1c0.4-0.7,0.7-1.2,1-1.5c0.1,0.5,0.1,0.8-0.1,1.1c-0.2,0.3-0.4,0.5-0.6,0.7c0,0.3,0,0.5,0,0.5
		c0,0.1,0,0.3,0,0.5c-0.4,0.2-0.7,0.5-0.9,0.9c-0.2,0.4-0.4,0.8-0.5,1.2c-0.2,0.4-0.3,0.8-0.5,1.2c-0.2,0.4-0.5,0.7-0.8,1
		c0.1,0.1,0.1,0.2,0,0.4c-0.1,0.2-0.1,0.4,0,0.5c-1.4,2.4-2.5,5.1-3.4,8.3c-0.9,3.2-1.9,6.1-2.9,8.7c-0.1,0.2-0.3,0.4-0.4,0.8
		c-0.2,0.3-0.2,0.6-0.1,0.9c-0.3,0.4-0.5,0.8-0.6,1.4c-0.1,0.6-0.3,1.1-0.4,1.6c-0.5,1.3-1,2.8-1.4,4.7c-0.4,1.8-1,3.4-1.8,4.7
		c-0.1,1.1-0.4,2.2-0.9,3.2c-0.5,1.1-0.9,2.1-1.3,3.1c-0.3,0.9-0.6,1.8-0.9,2.6c-0.3,0.8-0.6,1.6-1,2.3c-0.2,1-0.4,2-0.6,2.9
		c-0.2,0.9-0.2,1.9,0,2.9c-0.1,0.2-0.3,0.3-0.5,0.3c-0.2,0-0.2,0.3-0.1,0.8c-0.4-0.2-0.7-0.2-0.9,0c-0.2,0.2-0.4,0.4-0.6,0.7
		c-0.2,0.3-0.3,0.5-0.5,0.8s-0.5,0.4-0.8,0.4c-0.1,0.3-0.3,0.5-0.4,0.7c-0.2,0.2-0.3,0.4-0.3,0.5c-0.6-0.3-1-0.8-1.3-1.6
		c-0.3,0.3-0.6,0.2-0.8-0.1c-0.2-0.4-0.5-0.6-0.8-0.8c-1.1,0.2-2-0.1-2.5-0.9c-0.6-0.8-1.1-1.6-1.6-2.5c-0.2,0.1-0.4,0.1-0.5,0
		c-0.7-1-1.2-2.2-1.6-3.7c-0.3-1.5-0.8-2.8-1.4-4c0-0.8-0.1-1.8-0.2-2.9c-0.1-1.1-0.3-2.2-0.5-3.2c-0.1-0.2-0.1-0.3-0.1-0.5
		c0-0.1-0.1-0.3-0.2-0.5c0.1-0.4,0.1-0.9,0-1.7c-0.1-0.8-0.3-1.5-0.4-2.1c-0.3-1.2-0.5-2.4-0.7-3.6c-0.2-1.2-0.4-2.4-0.5-3.6
		c-0.1-0.7-0.2-1.5-0.2-2.2c0-0.7-0.2-1.4-0.5-1.9c0-1.6-0.2-3-0.5-4.4c-0.4-1.4-0.7-2.8-1-4.4c-1.1,1.5-2.1,3-3,4.6
		c-0.9,1.6-1.8,3.2-2.8,4.9c-0.9,1.6-1.9,3.3-2.8,4.9c-0.9,1.6-2,3.2-3.1,4.7c-0.3,0.8-0.8,1.6-1.3,2.2c-0.5,0.6-1,1.3-1.5,2.1
		c-0.3,0.6-0.7,1.2-1,1.8c-0.4,0.5-0.7,1.1-1,1.6c-0.7,2.1-1.5,4.1-2.4,6c0,0.5-0.1,0.8-0.4,1.2c-0.3,0.3-0.6,0.6-1,0.9
		c-0.4,0.3-0.7,0.5-1.1,0.8c-0.4,0.3-0.6,0.6-0.6,1c-0.3,0-0.7-0.2-1.2-0.5c-0.5-0.3-0.8-0.4-1.2-0.2c-0.4,0-0.7,0.1-0.9,0.3
		c-0.2,0-0.4-0.2-0.5-0.7c-0.1,0.1-0.1,0.2-0.1,0.3c0,0.1-0.1,0.1-0.2,0.1c-0.1-0.2-0.3-0.3-0.6-0.3c-0.3,0-0.6-0.1-0.9-0.1
		c0-0.5,0-1-0.1-1.4c-0.1-0.4,0-0.8,0.1-1.3c0-0.2,0-0.2-0.1-0.1c-0.1,0.1-0.2,0.1-0.3,0.1c-0.1-0.2-0.2-0.3-0.1-0.5
		c0-0.1,0-0.3-0.1-0.5c-0.1-0.2-0.1-0.2,0,0c0,0.2,0,0.3,0,0.4c-0.6-0.6-0.9-1.6-0.8-2.9c0-1.3,0-2.3,0-3c-0.1-0.4-0.3-0.6-0.4-0.7
		c-0.2-0.1-0.3-0.3-0.4-0.5c0.1-0.9,0.3-1.5,0.4-1.6c0.5-2.1,1-4,1.6-5.8c0.6-1.7,1.2-3.5,1.8-5.2c0.9-2.6,2-4.9,3.2-7.1
		c1.2-2.2,2.2-4.6,3-7.2c0.8-1.1,1.6-2.3,2.2-3.7c0.7-1.4,1.3-2.7,2.1-4c0-0.2,0.1-0.3,0.4-0.3c0.3-0.7,0.7-1.4,1-2.1
		c0.4-0.7,0.7-1.4,1-2.1c0.8-1.1,1.5-2.5,2-4.1c0.5-1.6,1.1-3.1,1.9-4.4c0-0.1,0-0.2,0-0.2c0,0,0-0.2,0-0.5h0.4
		c-0.1-0.3-0.2-0.6-0.1-1c0-0.4-0.1-0.5-0.3-0.5c0.1-0.5,0.1-1,0.1-1.5s-0.1-1-0.4-1.4c0-0.5,0-1,0.1-1.3c0.1-0.3,0.2-0.7,0.2-1
		c0.7,0.4,1.2,0.3,1.6-0.1c0.4-0.4,0.9-0.6,1.6-0.5c0-0.3-0.1-0.4-0.2-0.3c-0.1,0-0.2-0.1-0.1-0.3c0.2,0,0.3-0.2,0.3-0.5
		c0.4,0.2,0.7,0.3,0.8,0.3c0.2,0,0.4,0.1,0.7,0.3c0.3,0,0.5-0.2,0.5-0.5c0.4,0.4,0.9,0.8,1.5,1.2c0.6,0.4,1.3,0.9,1.9,1.4
		c0.7,0.5,1.3,1,1.9,1.5c0.6,0.5,1,1,1.3,1.4c0.1-0.1,0.2-0.2,0.2-0.3c0-0.1,0.1-0.1,0.3,0c0.3,0.5,0.6,1.1,0.9,1.6
		c0.3,0.5,0.6,1.1,0.8,1.7c0.1,0.1,0.2,0.1,0.5,0.1c0,0.8,0.2,1.5,0.6,1.9c0.4,0.5,0.7,1.1,0.8,1.8c0.8,1.3,1.3,2.8,1.6,4.6
		s0.8,3.5,1.4,5c0.1,0.2,0.1,0.3,0,0.3c-0.1,0-0.1,0.2-0.1,0.3c0.8,1.4,1.4,2.9,1.8,4.7c0.4,1.7,0.8,3.5,1.1,5.2
		c0.8-1.4,1.6-2.9,2.3-4.5c0.7-1.6,1.4-3.2,2.1-4.7c0-0.2,0-0.3-0.1-0.3c-0.1,0-0.1-0.1,0-0.3c0.3,0,0.4,0,0.5-0.1
		c3.2-6.7,6.5-13,10-19c3.5-6,6.8-12.3,9.8-19c0.3-0.2,0.5-0.4,0.6-0.7c0.1-0.3,0.3-0.5,0.6-0.7c-0.1-0.2-0.1-0.3,0-0.4
		c0.1-0.1,0.1-0.2,0.1-0.4c0.3-0.4,0.5-0.7,0.8-1c0.3-0.3,0.4-0.8,0.5-1.4c0.3,0,0.4-0.1,0.5-0.3c0.1-0.2,0.2-0.3,0.4-0.4
		c0.2-1,0.6-1.8,1.1-2.4c0.6-0.6,0.9-1.4,1-2.4c0.3-0.3,0.6-0.5,0.8-0.8c0.2-0.3,0.4-0.5,0.7-0.8c0.1-0.2,0.1-0.5,0.1-1
		c2-2.7,3.9-5.5,5.9-8.2c2-2.7,4.2-5.1,6.7-7.3c0.1,0,0.2,0.1,0.2,0.3c0,0.2,0,0.4,0,0.5c0.1-0.2,0.2-0.3,0.5-0.3
		c0.1,0.1,0.2,0.3,0.2,0.5c0.3-0.1,0.6-0.1,0.7-0.1c0.2,0,0.4,0.1,0.6,0.2c0,0.6-0.1,1-0.4,1c-0.3,0-0.5,0.3-0.6,0.6
		c0.1,0.2,0.3,0.2,0.5,0.1c0.2-0.1,0.4-0.2,0.6-0.1c0.1,0.6-0.1,1.2-0.4,1.6c-0.4,0.5-0.5,0.9-0.3,1.4c-0.4,0.5-0.6,1-0.5,1.5
		c0.1,0.5,0.1,1.1,0.1,1.6c0.2,0.2,0.3,0.1,0.4-0.1c0.1-0.3,0.2-0.5,0.3-0.7c0.2,0.3,0.2,0.5,0.1,0.5c-0.1,0.1-0.2,0.2-0.3,0.4
		c-0.3,0.7-0.5,1.5-0.6,2.3c-0.1,0.8-0.4,1.6-0.7,2.3c-0.1-0.1-0.2,0-0.2,0.1c0,0.2-0.1,0.3-0.2,0.3c0,0.4,0.1,0.5,0.4,0.5
		c0.3,0,0.5,0,0.6,0.2c0,0.5-0.2,0.9-0.5,1.2c-0.4,0.4-0.6,0.8-0.8,1.2c-0.1,0.2-0.2,0.4-0.2,0.8c0,0.3-0.1,0.6-0.2,0.8
		c-0.2,0.5-0.5,0.9-0.9,1.4c-0.4,0.5-0.4,1.2-0.1,2c0.3,0.1,0.4,0,0.5-0.3c0.1-0.3,0.2-0.3,0.3-0.1c-0.1,1.3-0.5,2.4-1.2,3.4
		c-0.7,1-1.3,2-1.8,3.2c-0.1,0-0.2,0.1-0.3,0.3c-0.1,0.2-0.2,0.3-0.3,0.3c0.1,0.8,0.1,1.5-0.1,1.9c-0.2,0.5-0.3,0.9-0.2,1.4
		c-0.1-0.1-0.2-0.1-0.3,0.1c-0.1,0.1-0.2,0.3-0.3,0.3c0.1,0.7,0,1.2-0.3,1.4c-0.3,0.2-0.4,0.7-0.4,1.4c-0.5,0.4-0.8,0.8-1,1.4
		c-0.2,0.5-0.4,1.1-0.7,1.5c-0.1,0.3-0.1,0.4,0.1,0.3c0.2-0.1,0.3,0,0.1,0.3c-1.7,3.5-3.5,7.1-5.4,10.7
		C406.6,380.5,404.8,384.2,403.3,388.1z M336.1,427.6c0.1-0.2,0.1-0.3,0.2-0.3c0.1,0,0.1,0,0.1-0.1c-0.1,0-0.1-0.2-0.1-0.5
		c-0.2-0.1-0.3,0-0.4,0.3C335.8,427.2,335.9,427.4,336.1,427.6z"/>
	<path class="st0" d="M405.9,460c-0.1-0.1-0.2-0.1-0.3-0.1c-0.1,0-0.2,0-0.3-0.2c0.1-0.4,0.4-0.5,0.7-0.3c-0.1-0.1-0.1-0.3,0-0.5
		c0-0.2,0-0.3-0.1-0.3c0.1-0.2,0.3-0.3,0.4-0.5c0.1-0.1,0.2-0.4,0.2-0.8c0-0.2-0.1-0.2-0.2-0.1c-0.1,0.1-0.2,0.1-0.3,0
		c-0.1-0.4-0.1-0.6,0-0.8c0.1-0.2,0.1-0.4,0.1-0.7c0.1,0,0.2,0,0.3-0.1c0.1-0.1,0.1,0,0.2,0.1c0.3-1.6,0.7-3.3,1.1-4.8
		c0.4-1.6,0.8-3.1,1.2-4.7c2.2-6,4.2-12.1,6-18.3c1.9-6.1,4.2-11.9,7-17.4c0.1-0.2,0.1-0.4,0-0.5c0.3-0.5,0.5-1,0.6-1.6
		c0.1-0.6,0.2-1.2,0.5-1.8c0.4-0.7,0.7-1.4,1-2c0.3-0.6,0.6-1.2,0.9-1.9c0.2-0.3,0.4-0.5,0.6-0.7c0.2-0.2,0.4-0.4,0.5-0.7
		c0.7-1.3,1.4-2.6,2.2-4.1c0.7-1.4,1.5-2.8,2.3-4.1c-0.1-0.3-0.2-0.5-0.3-0.5c0.1-0.2,0.2-0.3,0.3-0.2c0.1,0,0.1,0,0.1-0.2
		c-0.4-1-0.9-1.8-1.5-2.5c-0.6-0.6-1.2-1.5-1.6-2.5c-0.8-0.9-1.5-1.9-2.1-3.1c-0.6-1.1-1.3-2.2-2.1-3.2c-0.6-1-1.1-2-1.5-3.1
		c-0.4-1.1-1-2-1.6-2.8c0-0.5,0-0.9-0.1-1.1c-0.3-0.7-0.7-1.4-1.1-2.1s-0.8-1.4-1.2-2.1h-0.4c-0.4-1.8-1-3.4-1.7-4.7
		c-0.8-1.3-1.3-3-1.6-5.1c0.1,0.2,0.2,0.2,0.2,0.1c0-0.1,0.1-0.1,0.2-0.1c0.1,0.3,0.3,0.6,0.4,1.1c0.2,0.5,0.4,0.8,0.8,1
		c0-0.9-0.3-1.7-0.8-2.3c-0.6-0.6-0.9-1.5-0.9-2.5c-0.1-0.2-0.3-0.4-0.6-0.5c0.1-0.6,0.3-1.1,0.4-1.2c0.7,0.1,1.2,0.4,1.6,1
		c0.6-0.4,1.1-0.7,1.5-1c0.4-0.3,0.8-0.7,1.3-1.2c0-0.2,0-0.3-0.1-0.3c0.1-0.2,0.3-0.3,0.5-0.5c0.2-0.1,0.4,0,0.4,0.5
		c0.2-0.2,0.3-0.6,0.3-1.2c0.5,0.2,0.7,0.4,0.9,0.7c0.1,0,0.2-0.1,0.1-0.2c0-0.1,0-0.2,0.1-0.2c0.4,0.3,0.7,0.7,0.9,1.3
		c0.2,0.6,0.5,1,1,1.3c0.1-0.6-0.1-1.2-0.4-1.6c-0.3-0.4-0.5-0.9-0.6-1.6c0.9,0.6,1.6,1.5,2.2,2.5c0.6,1,1.1,2,1.7,3
		c0.2,0.1,0.4,0.1,0.7,0c0,0.6,0.1,1.1,0.4,1.2c0.3,0.2,0.5,0.5,0.6,1c0.1,0.1,0.3,0,0.6-0.1c0.1,0.2,0.1,0.3,0.2,0.4
		c0.1,0.1,0.1,0.3,0.1,0.5c1,0.8,1.8,2,2.3,3.4c0.6,1.5,1.3,2.6,2.2,3.3c0.4,1.1,1,2,1.7,2.7c0.7,0.7,1.2,1.6,1.3,2.7
		c0.8,0.5,1.5,1.1,2,1.9c0.5,0.8,1.1,1.6,1.7,2.3c0.7-1,1.4-2.1,2.1-3.2c0.7-1.1,1.4-2.2,2.3-3.2c0-0.5,0.1-1,0.3-1.3
		c0.2-0.3,0.4-0.6,0.7-1c0.3-0.3,0.5-0.6,0.7-1c0.2-0.3,0.4-0.7,0.5-1.2c0.2-0.1,0.3-0.3,0.4-0.5c0.1-0.2,0.3-0.4,0.5-0.6
		c0.9-1.6,1.9-3,2.9-4.5c1-1.4,2.1-2.9,3.1-4.3c0.2,0,0.4-0.1,0.5-0.3c0.2-0.5,0.4-0.8,0.7-1.1c0.3-0.3,0.5-0.5,0.8-0.8l1.2-1.6
		c1.6-1.8,3.1-3.7,4.6-5.6c1.5-1.9,3.1-3.6,4.8-5.3c0.5-0.1,0.8-0.3,1-0.5c0.2-0.2,0.5-0.5,0.8-0.8h0.6c0.3-0.3,0.5-0.5,0.8-0.7
		c0.3-0.2,0.6-0.2,0.9,0c0.3-0.3,0.6-0.4,1.1-0.5c0.5,0,0.7,0.2,0.9,0.6c-0.3-0.3-0.5-0.3-0.5-0.1c0,0.2-0.2,0.3-0.5,0.2
		c0.2,0.5,0.5,0.7,0.8,0.4c0.4-0.3,0.7-0.3,1.1,0c0.1,0.2,0.1,0.3,0,0.4c0,0.1,0,0.2,0,0.4c0,0.2,0.1,0.3,0.2,0.3
		c0.2,0,0.2,0.1,0.1,0.4c0.2,0,0.4,0,0.7-0.1c0.3,0,0.4,0.1,0.5,0.5c0.3-0.2,0.6-0.3,0.7-0.4c0.2-0.1,0.4-0.1,0.7-0.1
		c-0.1,0.2-0.2,0.3-0.2,0.3c0,0,0,0.2,0.1,0.5c0.2,0.6,0.5,1.2,0.8,1.8c0.4,0.5,0.7,1.1,1,1.6c0.3,0.5,0.6,1.1,0.8,1.6
		c0.2,0.6,0.3,1.2,0.2,1.9c-0.1,0.6-0.2,1.2-0.4,1.6c-0.2,0.4-0.4,0.9-0.5,1.6c-0.1,0.2-0.2,0.3-0.3,0.5c-0.1,0.1-0.2,0.3-0.3,0.5
		c0.1,0.5,0,0.8-0.3,1.2c-0.3,0.3-0.6,0.6-0.8,0.9c-0.3,0.8-0.6,1.2-0.9,1.2c-0.1,0.5-0.3,0.8-0.5,1.2c-0.2,0.3-0.5,0.7-0.7,1
		c-0.1,0.5-0.2,0.9-0.5,1.2c-0.3,0.2-0.6,0.6-0.8,1c-0.4,0.5-0.8,1.1-1.1,1.6c-0.3,0.5-0.7,1.1-1.1,1.6c-0.6,0.8-1.2,1.6-1.8,2.5
		c-0.6,0.8-1.2,1.7-1.8,2.7c-0.2,0.1-0.3,0.3-0.4,0.5c-0.1,0.2-0.3,0.4-0.5,0.6c-0.5,1-1.1,1.9-1.6,2.8c-0.6,0.9-1.1,1.7-1.7,2.5
		c-0.3,0.9-0.6,1.4-0.9,1.4c-0.2,0.5-0.4,0.9-0.6,1.3c-0.2,0.4-0.5,0.7-0.9,0.9c-0.1,1-0.5,1.8-1.1,2.5c-0.6,0.6-1.1,1.5-1.3,2.6
		c-0.5,0.2-1,0.8-1.5,1.9c-0.5,1.1-0.9,1.9-1.5,2.5c-0.2,0-0.3,0.2-0.4,0.5c-0.1,0.4-0.2,0.5-0.4,0.4c-0.1,0.7-0.4,1.4-0.9,2.1
		c-0.5,0.6-0.9,1.3-1.3,1.9c-0.1,0.3-0.1,0.5-0.1,0.7c0,0.2-0.1,0.5-0.2,0.8c0.1,0.1,0.2,0.2,0.1,0.3c0,0.1,0,0.3,0,0.6h-0.4
		c0,0.4,0,0.6-0.1,0.7c-0.2,0.1-0.4,0.2-0.6,0.3c-0.2,0.1-0.4,0.1-0.5-0.1c-2.2,3.2-4.2,6.4-6.1,9.6c-1.9,3.2-3.7,6.7-5.4,10.4
		c-0.1-0.1-0.2-0.1-0.3-0.1c-1.6,3.2-3.1,6.5-4.6,9.7c-1.5,3.3-3,6.5-4.6,9.8c-0.5,0.5-0.8,1-1.1,1.6c-0.3,0.6-0.6,1.3-0.9,2.1
		c-0.3,0.7-0.7,1.4-1,2.1c-0.4,0.7-0.7,1.4-1.1,2.3c-0.1,0.4-0.3,0.7-0.5,1c-0.2,0.3-0.4,0.5-0.5,0.8c-0.3,0.7-0.6,1.5-0.8,2.3
		c-0.2,0.8-0.5,1.5-0.8,2.3c-0.5,0.7-1,1.5-1.5,2.3c-0.5,0.8-0.9,1.5-1.5,2.3c0.1,0.5,0,0.8-0.1,1c-0.2,0.2-0.3,0.5-0.4,0.8
		c0,0.1,0,0.1,0,0.1c0,0,0,0.1,0,0.3c-0.1,0.4-0.3,0.7-0.5,0.9c-0.2,0.2-0.3,0.6-0.3,1c-0.4,0.1-0.6,0.3-0.6,0.8
		c0,0.4-0.2,0.7-0.4,0.9c-0.2,0-0.3,0-0.3-0.1c0-0.1-0.1-0.2-0.1-0.3c-0.4,0.3-0.7,0.6-1,1c-0.3,0-0.6-0.1-0.9-0.4
		c-0.5,0.3-0.8,0.4-1.1,0.5c-0.3,0-0.5,0.1-0.7,0.1s-0.4,0-0.7,0c-0.3,0-0.7,0-1.2,0c-0.1,0.2-0.1,0.3-0.2,0.5
		c-0.1,0.1-0.1,0.3-0.2,0.5c-0.4-0.3-0.7-0.6-1-1c-0.5,0.2-0.8,0.5-1,0.8c-0.2,0.4-0.5,0.8-0.7,1.2c-0.2-0.1-0.4-0.1-0.7,0.1
		c-0.3,0.1-0.5,0.4-0.5,0.9c-0.5-0.2-0.7-0.5-0.8-0.8c-0.1-0.4,0-0.8,0-1.3c0.1-0.5,0.2-1,0.3-1.5c0.1-0.5,0.2-0.9,0.1-1.3
		c0-0.2,0.1-0.3,0.2-0.3C405.9,460.4,406,460.3,405.9,460z M414.3,460c-0.1,0.1-0.3,0.2-0.4,0.3c-0.2,0.1-0.2,0.3,0,0.5
		c0-0.2,0.1-0.3,0.3-0.4C414.4,460.3,414.4,460.2,414.3,460z M415.3,461c-0.1,0.1-0.3,0.1-0.6,0.1s-0.5,0.2-0.5,0.5
		c0.3,0.3,0.5,0.3,0.7,0.1C415,461.5,415.1,461.2,415.3,461z"/>
</g>
</svg>
