<?xml version="1.0" encoding="utf-8"?>
<!-- Generator: Adobe Illustrator 19.0.0, SVG Export Plug-In . SVG Version: 6.00 Build 0)  -->
<svg version="1.1" id="Layer_1" xmlns="http://www.w3.org/2000/svg" xmlns:xlink="http://www.w3.org/1999/xlink" x="0px" y="0px"
	 viewBox="-35 368.8 540 57.2" style="enable-background:new -35 368.8 540 57.2;" xml:space="preserve">
<style type="text/css">
	.st0{fill:#FFD200;}
</style>
<title>Front-end Developer &amp; Motion / Graphic Designer</title>
<path class="st0" d="M67,376.8l-2.2,3.7H53.5v6.8h-4v-13.7c0.3-2.1,1.6-3.4,4-3.8H67v3.8H55.6c-1.4,0-2.1,0.8-2.1,2.3v3.2l1.4-2.3
	H67z M84.6,369.8c2.4,0.4,3.7,1.7,4,3.8v5c-0.1,1.4-0.9,2.6-2.1,3.3l2.1,5.4h-4.5l-2-5H76l2.1-3.7h4.6c1.3,0,2-0.7,2-2.1v-0.7
	c0-1.5-0.7-2.3-2.1-2.3h-9v13.7h-4v-17.4H84.6z M95.1,369.8h11.1c2.3,0.4,3.7,1.7,4,3.8v10c-0.2,2-1.9,3.6-4,3.7H95.1
	c-2.1-0.1-3.8-1.7-4-3.7v-10C91.4,371.5,92.8,370.2,95.1,369.8z M95.1,375.8v5.6c0,1.4,0.7,2.1,2,2.1h7.1c1.3,0,2-0.7,2-2v-5.7
	c0-1.5-0.7-2.3-2-2.3h-7C95.8,373.5,95.1,374.3,95.1,375.8z M127.7,378.2l-1.4,2.5l-9.6-6v12.6h-4v-17.5h4l11,7v-7h4v17.5h-4V378.2z
	 M134.2,369.8H152v3.8h-7v13.7h-4v-13.7h-6.8L134.2,369.8z M163.5,376.8l-2.2,3.7h-9.6l2.2-3.8L163.5,376.8z M183.4,376.8l-2.2,3.7
	h-11.5v1c0,1.3,0.7,2,2,2h11.8l-2.2,3.8h-11.6c-2.1-0.1-3.8-1.7-4-3.7v-10c0.3-2.1,1.7-3.4,4-3.8h13.8v3.8h-11.7c-1.3,0-2,0.8-2,2.3
	v3.2l1.2-2.3H183.4z M201,378.2l-1.4,2.5l-9.7-6v12.6h-4v-17.5h4l11,7v-7h4.1v17.5h-4L201,378.2z M207.6,369.8h15
	c2.4,0.4,3.8,1.7,4.1,3.8v10c-0.2,2-1.9,3.6-4,3.7H214l2.2-3.8h4.5c1.3,0,2-0.7,2-2v-5.7c0-1.5-0.7-2.3-2-2.3h-9v13.7h-4.1V369.8z
	 M240.2,369.8h15.1c2.3,0.4,3.7,1.7,4,3.8v10c-0.2,2-1.9,3.6-4,3.7h-8.7l2.2-3.8h4.5c1.3,0,2-0.7,2-2v-5.7c0-1.5-0.7-2.3-2-2.3h-9
	v13.7h-4.1V369.8z M279.5,376.8l-2.2,3.7h-11.5v1c0,1.3,0.7,2,2,2h11.7l-2.2,3.8h-11.5c-2.1-0.1-3.8-1.7-4-3.7v-10
	c0.3-2.1,1.6-3.4,4-3.8h13.7v3.8h-11.7c-1.3,0-2,0.8-2,2.3v3.2l1.2-2.3H279.5z M286.3,369.8l5.5,13.8l5.5-13.8h4.7l-7,17.5h-6.4
	l-7-17.5H286.3z M321.3,376.8l-2.2,3.7h-11.6v1c0,1.3,0.7,2,2,2h11.8l-2.2,3.8h-11.6c-2.1-0.1-3.8-1.7-4-3.7v-10
	c0.3-2.1,1.7-3.4,4-3.8h13.8v3.8h-11.7c-1.3,0-2,0.8-2,2.3v3.2l1.3-2.4L321.3,376.8z M327.8,369.8v11.6c0,1.4,0.7,2.1,2,2.1h10.5
	l-2.2,3.8h-10.3c-2.1-0.1-3.8-1.7-4-3.7v-13.8H327.8z M346.4,369.8h11.1c2.4,0.4,3.7,1.7,4,3.8v10c-0.2,2-1.9,3.6-4,3.7h-11
	c-2.1,0-3.9-1.6-4.1-3.7v-10C342.7,371.5,344.1,370.2,346.4,369.8z M346.4,375.8v5.6c0,1.4,0.7,2.1,2,2.1h7.1c1.3,0,2-0.7,2-2v-5.7
	c0-1.5-0.7-2.3-2-2.3h-7c-1.3,0-2,0.8-2,2.3H346.4z M364,369.8h15.1c2.4,0.4,3.7,1.7,4,3.8v5c-0.2,2.1-1.9,3.7-4,3.8h-8.6l2.1-3.8
	h4.5c1.3,0,2-0.7,2-2.1v-0.7c0-1.5-0.7-2.3-2-2.3h-9v13.7H364V369.8z M403.3,376.8l-2.2,3.7h-11.5v1c0,1.3,0.7,2,2,2h11.7l-2.2,3.8
	h-11.5c-2.1-0.1-3.8-1.7-4-3.7v-10c0.3-2.1,1.6-3.4,4-3.8h13.7v3.8h-11.7c-1.3,0-2,0.8-2,2.3v3.2l1.4-2.3H403.3z M420.9,369.8
	c2.3,0.4,3.7,1.7,4,3.8v5c-0.1,1.4-0.9,2.7-2.2,3.3l2.2,5.4h-4.5l-2.1-5h-6l2-3.7h4.6c1.3,0,2-0.7,2-2.1v-0.7c0-1.5-0.7-2.3-2-2.3
	h-9v13.7h-4.1v-17.4H420.9z M85.8,396.7L72,414.2h-5.3l13.9-17.4L85.8,396.7z M98.9,403.5h8.6c2.1,0.2,3.7,1.8,4,3.8v3.2
	c-0.2,2-1.9,3.6-4,3.7h-11c-2.1,0-3.9-1.6-4.1-3.7v-10c0.3-2.1,1.7-3.4,4-3.8h15.1l-2.2,3.8H98.5c-1.3,0-2,0.7-2,2.2v5.6
	c0,1.4,0.6,2.1,1.9,2.1h7.1c1.3,0,2-0.5,2-1.5c0-0.5-0.1-0.9-0.5-1.2c-0.5-0.3-1-0.4-1.6-0.4h-4.3L98.9,403.5z M129,396.7
	c2.4,0.4,3.7,1.7,4,3.8v5c-0.1,1.3-0.8,2.5-2,3.2l2,5.5h-4.5l-2-5h-6l2-3.8h4.6c1.3,0,2-0.7,2-2v-0.7c0-1.5-0.7-2.2-2.1-2.2h-9v13.7
	h-4v-17.4L129,396.7z M146.3,414.2h-11l7-17.5h6.3l7,17.5h-4.8l-5.4-13.7l-4,9.9h7L146.3,414.2z M157.7,396.7h15
	c2.1,0.1,3.8,1.7,4.1,3.8v5c-0.2,2.1-1.9,3.7-4,3.8H164l2.2-3.9h4.5c1.3,0,2-0.7,2-2v-0.7c0-1.5-0.7-2.2-2-2.2h-9v13.7h-4.1
	L157.7,396.7z M194.3,405l-1.4,2.4h-9.7v6.8h-4v-17.4h4v9.3l1.4-2.4h9.7v-7h4v17.6h-4V405z M200.9,396.7h4v17.5h-4V396.7z
	 M211.4,408.3c0,1.4,0.7,2.1,2,2.1h11.8l-2.2,3.8h-11.6c-2.1-0.1-3.8-1.7-4-3.7v-10c0.3-2.1,1.7-3.4,4-3.8h13.8v3.8h-11.7
	c-1.3,0-2,0.7-2,2.2L211.4,408.3z M238.6,396.7h15.2c2.1,0.2,3.7,1.8,4,3.8v10c-0.2,2-1.9,3.6-4,3.7H245l2.2-3.8h4.5
	c1.3,0,2-0.7,2-2.1v-5.6c0-1.5-0.7-2.2-2.1-2.2h-9v13.7h-4L238.6,396.7z M278,403.6l-2.3,3.8h-11.5v0.9c0,1.4,0.7,2.1,2,2.1H278
	l-2.2,3.8h-11.6c-2.1-0.1-3.8-1.7-4-3.7v-10c0.3-2.1,1.7-3.4,4-3.8H278v3.8h-11.7c-1.3,0-2,0.7-2,2.2v3.3l1.3-2.4H278z M282.6,410.4
	h10.8c0.6,0,1.1-0.1,1.6-0.3c0.4-0.3,0.6-0.8,0.5-1.3c0-0.4-0.2-0.8-0.5-1c-0.5-0.3-1-0.4-1.5-0.4h-9c-2.1,0-3.9-1.7-4.1-3.8v-3.1
	c0.3-2.1,1.7-3.4,4-3.8h15.1v3.8h-13c-0.6,0-1.1,0.1-1.6,0.3c-0.4,0.3-0.6,0.8-0.5,1.3c0,1,0.7,1.5,2,1.5h9.1c2.4,0.3,3.7,1.6,4,3.7
	v3.1c-0.3,2.1-1.6,3.4-4,3.8h-15.1L282.6,410.4z M302,396.7h4v17.5h-4V396.7z M315,403.5h8.6c2.1,0.2,3.7,1.8,4,3.8v3.2
	c-0.2,2-1.9,3.6-4,3.7h-11c-2.1-0.1-3.8-1.7-4-3.7v-10c0.3-2.1,1.6-3.4,4-3.8h15l-2.2,3.8h-10.8c-1.3,0-2,0.7-2,2.2v5.6
	c0,1.4,0.7,2.1,2,2.1h7c1.3,0,2-0.5,2-1.5c0-0.5-0.1-0.9-0.5-1.2c-0.5-0.3-1-0.4-1.5-0.4h-4.4L315,403.5z M345.1,405l-1.4,2.5
	l-9.6-5.9v12.6h-4v-17.4h4l11,6.9v-7h4v17.6h-4V405z M369.4,403.6l-2.2,3.8h-11.5v0.9c0,1.4,0.7,2.1,2,2.1h11.7l-2.2,3.8h-11.5
	c-2.1-0.1-3.8-1.7-4-3.7v-10c0.3-2.1,1.6-3.4,4-3.8h13.7v3.8h-11.7c-1.3,0-2,0.7-2,2.2v3.3l1.4-2.4H369.4z M387,396.7
	c2.3,0.4,3.7,1.7,4,3.8v5c-0.1,1.4-1,2.6-2.2,3.2l2.2,5.5h-4.5l-2.1-5h-6l2-3.8h4.6c1.3,0,2-0.7,2-2v-0.7c0-1.5-0.7-2.2-2-2.2h-9
	v13.7h-4.1v-17.4L387,396.7z"/>
</svg>
