<?xml version="1.0" standalone="no"?>
<!DOCTYPE svg PUBLIC "-//W3C//DTD SVG 20010904//EN"
 "http://www.w3.org/TR/2001/REC-SVG-20010904/DTD/svg10.dtd">
<svg version="1.0" xmlns="http://www.w3.org/2000/svg"
 width="260.000000pt" height="260.000000pt" viewBox="0 0 260.000000 260.000000"
 preserveAspectRatio="xMidYMid meet">
<metadata>
Created by potrace 1.11, written by Peter Selinger 2001-2013
</metadata>
<g transform="translate(0.000000,260.000000) scale(0.100000,-0.100000)"
fill="#000000" stroke="none">
<path d="M0 1300 l0 -1300 1300 0 1300 0 0 1300 0 1300 -1300 0 -1300 0 0
-1300z m1853 929 c287 -166 528 -306 535 -311 9 -8 12 -140 10 -621 l-3 -610
-532 -308 -532 -307 -531 306 -530 306 0 617 0 617 528 305 c290 168 528 306
530 306 2 1 238 -135 525 -300z"/>
<path d="M835 2151 l-480 -278 -3 -571 -2 -570 482 -278 c265 -153 489 -278
498 -278 8 -1 232 124 498 277 l482 279 -2 570 -3 571 -480 278 c-264 153
-487 278 -495 278 -8 0 -231 -125 -495 -278z m509 -237 c15 -64 25 -118 23
-120 -2 -2 -151 -3 -331 -2 l-326 3 111 118 111 117 192 0 192 0 28 -116z m59
-266 l9 -38 389 0 c214 0 389 -3 389 -6 0 -4 -14 -51 -30 -105 l-31 -99 -334
0 c-184 0 -335 -2 -335 -5 0 -17 54 -241 59 -248 4 -4 29 22 55 58 l48 65 239
0 c131 0 239 -3 239 -6 0 -21 -88 -279 -111 -324 -53 -106 -158 -183 -290
-215 -90 -21 -422 -21 -504 0 -79 20 -135 60 -162 115 -34 66 -30 123 21 277
l44 133 -26 95 -25 95 -315 2 -315 3 114 122 114 122 375 -2 374 -2 9 -37z"/>
<path d="M1625 1053 c-11 -2 -69 -7 -130 -11 -94 -6 -110 -10 -113 -25 -8 -39
14 -47 135 -47 108 0 115 1 138 25 14 13 25 33 25 45 0 20 -9 22 -55 13z"/>
</g>
</svg>
